<svg id="Layer_1" data-name="Layer 1" xmlns="http://www.w3.org/2000/svg" viewBox="0 0 380 380">
  <defs>
    <style>
      .cls-1, .cls-4, .cls-5, .cls-6 {
        fill: none;
      }

      .cls-1, .cls-5, .cls-6 {
        stroke: #fff;
        stroke-miterlimit: 10;
      }

      .cls-2, .cls-3, .cls-7 {
        fill: #fff;
      }

      .cls-3 {
        fill-opacity: 0.5;
      }

      .cls-5 {
        stroke-width: 2px;
      }

      .cls-6, .cls-7 {
        opacity: 0.25;
      }
    </style>
  </defs>
  <title>icon</title>
  <g>
    <path class="cls-1" d="M339.15,96.25H117a11.5,11.5,0,0,0-11.47,11.47v139h245.1v-139A11.5,11.5,0,0,0,339.15,96.25Zm3.59,141.9H113.41V104.85H342.74Z"/>
    <rect class="cls-2" x="113.41" y="104.85" width="229.33" height="5.7"/>
    <rect class="cls-2" x="212.79" y="261.68" width="30.56" height="19.07"/>
    <path class="cls-2" d="M261.16,285.6H195c-1.9,0-1.9-6.17,0-6.17h66.18C263.06,279.43,263.06,285.6,261.16,285.6Z"/>
    <path class="cls-1" d="M105.52,243.3v7.1A11.5,11.5,0,0,0,117,261.86H339.15a11.5,11.5,0,0,0,11.47-11.46v-7.1Z"/>
    <g>
      <path class="cls-3" d="M241.26,147.11a14.92,14.92,0,0,0-2.54-5.73l1.81-1.89-4-3.8-1.8,1.89a15,15,0,0,0-5.85-2.26l-.06-2.61-5.51.13.06,2.62a12.92,12.92,0,0,0-1.62.44,14.92,14.92,0,0,0-4.11,2.1l-1.89-1.8-3.8,4,1.89,1.8a15.1,15.1,0,0,0-2.26,5.85l-2.61.06.14,5.51,2.61-.06a14.92,14.92,0,0,0,2.54,5.73l-1.8,1.89,4,3.8,1.8-1.89a14.93,14.93,0,0,0,5.85,2.25l.06,2.62,5.51-.14-.06-2.61a14.46,14.46,0,0,0,1.63-.44,15,15,0,0,0,4.1-2.1l1.89,1.8,3.8-4-1.89-1.8a15,15,0,0,0,2.26-5.85l2.61-.06-.13-5.51ZM236,150a9.52,9.52,0,0,1-6.53,9.28,9.22,9.22,0,0,1-2.75.48A9.52,9.52,0,1,1,236,150Z"/>
      <polygon class="cls-3" points="223.22 155.9 219.95 150.23 223.22 144.56 229.76 144.56 233.04 150.23 229.76 155.9 223.22 155.9"/>
    </g>
    <path class="cls-2" d="M286.18,211.88s-5.25-1.69-8-6-9.81-1.68-7.82,2.8-.13,10.63-.13,10.63Z"/>
    <g>
      <polygon class="cls-2" points="292.14 224.74 272.74 224.74 299.74 283.05 315.69 275.62 292.14 224.74"/>
      <polygon class="cls-2" points="286.18 211.88 270.23 219.31 272.72 224.69 292.12 224.69 286.18 211.88"/>
    </g>
    <g>
      <path class="cls-4" d="M241.25,177.86a21.34,21.34,0,0,0,6.28-37.19A35.09,35.09,0,0,0,239,144.9h2.83l7.33,12.7-7.33,12.7H227.21L224.74,166a34.23,34.23,0,0,0-.72,10.15,21.19,21.19,0,0,0,11,2.77A21.42,21.42,0,0,0,241.25,177.86Z"/>
      <path class="cls-4" d="M228.61,190.88c.19.34.39.68.6,1l0-.9Z"/>
      <path class="cls-4" d="M290.91,186a34.6,34.6,0,0,0-28-46.83,33.8,33.8,0,0,1,4.76,11.48l5.85-.14.3,12.35-5.85.14a33.72,33.72,0,0,1-5.05,13.1l4.23,4L258.61,189l-4.24-4a34.19,34.19,0,0,1-9.2,4.71,36,36,0,0,1-3.64,1l.14,5.86-8.78.21a34.54,34.54,0,0,0,37.3,9.37c.65-1.81,3-2.82,5.13-2.31A34.56,34.56,0,0,0,290.91,186Z"/>
      <path class="cls-3" d="M241.53,190.69a36,36,0,0,0,3.64-1,34.19,34.19,0,0,0,9.2-4.71l4.24,4,8.51-8.94-4.23-4a33.72,33.72,0,0,0,5.05-13.1l5.85-.14-.3-12.35-5.85.14a33.8,33.8,0,0,0-4.76-11.48,34.66,34.66,0,0,0-15.35,1.54A21.34,21.34,0,0,1,224,176.16a34.73,34.73,0,0,0,4.59,14.72l.58.11,0,.9a34,34,0,0,0,3.68,4.87l8.78-.21Z"/>
      <path class="cls-3" d="M243.85,173.27l9.4-16.28-9.4-16.28h-3.64a44.31,44.31,0,0,0-16.43,20.71,45.15,45.15,0,0,0-1.9,6.35l3.17,5.5Z"/>
    </g>
    <path class="cls-5" d="M94.36,160.35H32.2a3.87,3.87,0,0,0-3.87,3.87V281.88a3.87,3.87,0,0,0,3.87,3.87H94.36a3.87,3.87,0,0,0,3.87-3.87V164.22A3.87,3.87,0,0,0,94.36,160.35Zm-41.14,7.12a.51.51,0,0,1,.51-.5h19.1a.5.5,0,0,1,.5.5v.75a.5.5,0,0,1-.5.5H53.73a.5.5,0,0,1-.51-.5ZM63.28,282.23a3.87,3.87,0,1,1,3.86-3.86A3.86,3.86,0,0,1,63.28,282.23Zm32-10.24H31.25V174.11H95.31Z"/>
    <path class="cls-2" d="M272.6,137.06A39.05,39.05,0,0,1,295,187.54h0A39.06,39.06,0,0,1,244.54,210h0a39,39,0,0,1-22.42-50.48h0a39,39,0,0,1,50.48-22.42Zm-1.58,4.1a34.71,34.71,0,0,0-44.8,19.9h0a34.69,34.69,0,0,0,19.9,44.79h0A34.69,34.69,0,0,0,290.91,186h0A34.7,34.7,0,0,0,271,141.16Z"/>
    <g>
      <g>
        <path class="cls-2" d="M89.94,266.39H37.1a.87.87,0,0,1-.85-.89v-8.39l4-4.19H89.94a.86.86,0,0,1,.85.88v11.7A.87.87,0,0,1,89.94,266.39Z"/>
        <path class="cls-2" d="M39.43,257.07H36.25l4-4.19v3.31A.87.87,0,0,1,39.43,257.07Z"/>
      </g>
      <g>
        <path class="cls-6" d="M89.94,266.39H37.1a.87.87,0,0,1-.85-.89v-8.39l4-4.19H89.94a.86.86,0,0,1,.85.88v11.7A.87.87,0,0,1,89.94,266.39Z"/>
        <path class="cls-6" d="M39.43,257.07H36.25l4-4.19v3.31A.87.87,0,0,1,39.43,257.07Z"/>
      </g>
    </g>
    <rect class="cls-1" x="35.77" y="187" width="13.81" height="25.78"/>
    <rect class="cls-1" x="68.91" y="229.06" width="21.88" height="19.81"/>
    <rect class="cls-1" x="77.28" y="187" width="13.51" height="13.51"/>
    <rect class="cls-1" x="51.45" y="179.71" width="39.34" height="4.59"/>
    <rect class="cls-2" x="51.69" y="187" width="22.59" height="2.19"/>
    <rect class="cls-2" x="51.69" y="192.66" width="22.59" height="2.19"/>
    <rect class="cls-2" x="51.69" y="198.32" width="22.59" height="2.19"/>
    <rect class="cls-2" x="51.69" y="203.98" width="39.1" height="2.19"/>
    <rect class="cls-2" x="51.69" y="209.63" width="39.1" height="2.19"/>
    <path class="cls-2" d="M38.75,181.2a1.49,1.49,0,1,1-1.49-1.49A1.49,1.49,0,0,1,38.75,181.2Z"/>
    <path class="cls-2" d="M44.17,181.2a1.5,1.5,0,1,1-1.5-1.49A1.5,1.5,0,0,1,44.17,181.2Z"/>
    <path class="cls-2" d="M49.58,181.2a1.5,1.5,0,1,1-1.5-1.49A1.5,1.5,0,0,1,49.58,181.2Z"/>
    <g>
      <g>
        <rect class="cls-2" x="36.25" y="246.7" width="29.12" height="2.35"/>
        <rect class="cls-2" x="36.25" y="240.82" width="29.12" height="2.35"/>
        <rect class="cls-2" x="36.25" y="234.94" width="29.12" height="2.35"/>
        <rect class="cls-2" x="36.25" y="229.05" width="29.12" height="2.35"/>
        <rect class="cls-2" x="36.25" y="223.17" width="54.54" height="2.35"/>
        <rect class="cls-2" x="36.25" y="217.28" width="54.54" height="2.35"/>
      </g>
      <g>
        <rect class="cls-7" x="36.25" y="246.7" width="29.12" height="2.35"/>
        <rect class="cls-7" x="36.25" y="240.82" width="29.12" height="2.35"/>
        <rect class="cls-7" x="36.25" y="234.94" width="29.12" height="2.35"/>
        <rect class="cls-7" x="36.25" y="229.05" width="29.12" height="2.35"/>
        <rect class="cls-7" x="36.25" y="223.17" width="54.54" height="2.35"/>
        <rect class="cls-7" x="36.25" y="217.28" width="54.54" height="2.35"/>
      </g>
    </g>
  </g>
</svg>
