<svg id="Layer_1" data-name="Layer 1" xmlns="http://www.w3.org/2000/svg" viewBox="0 0 380 380">
  <defs>
    <style>
      .cls-1 {
        fill: #fff;
      }

      .cls-2 {
        opacity: 0.5;
      }
    </style>
  </defs>
  <title>icon</title>
  <g>
    <path class="cls-1" d="M249.55,166.9a.94.94,0,0,0,.94-.94v-39.5a.94.94,0,0,0-.94-.94H136.93a.94.94,0,0,0-.94.94V166a.94.94,0,0,0,.94.94h55.36v15.76H136.93a1,1,0,0,0-.94,1v39.5a1,1,0,0,0,.94.95h55.36v15.76H136.93a1,1,0,0,0-.94,1v39.49a.94.94,0,0,0,.94.94H249.55a.94.94,0,0,0,.94-.94V240.77a1,1,0,0,0-.94-1H194.19V224.06h55.36a1,1,0,0,0,.94-.95v-39.5a1,1,0,0,0-.94-1H194.19V166.9Zm-.94,74.81v37.61H137.87V241.71Zm0-57.16v37.63H137.87V184.55Zm0-57.15V165H137.87V127.4"/>
    <polygon class="cls-1" points="178.67 125.52 176.84 125.52 176.84 74.35 160.34 74.35 160.34 72.52 178.67 72.52 178.67 125.52"/>
    <path class="cls-1" d="M156.67,68.85a4.59,4.59,0,1,0,4.58,4.58A4.59,4.59,0,0,0,156.67,68.85Zm0,7.34a2.76,2.76,0,1,1,2.75-2.76A2.76,2.76,0,0,1,156.67,76.19Z"/>
    <path class="cls-1" d="M92,124.45A4.59,4.59,0,1,0,96.54,129,4.59,4.59,0,0,0,92,124.45Zm0,7.34A2.76,2.76,0,1,1,94.71,129,2.76,2.76,0,0,1,92,131.79Z"/>
    <path class="cls-1" d="M67.78,191.1a4.59,4.59,0,1,0,4.58,4.58A4.59,4.59,0,0,0,67.78,191.1Zm0,7.33a2.75,2.75,0,1,1,2.75-2.75A2.75,2.75,0,0,1,67.78,198.43Z"/>
    <path class="cls-1" d="M273.11,220.3a4.59,4.59,0,1,0,4.58,4.59A4.6,4.6,0,0,0,273.11,220.3Zm0,7.34a2.75,2.75,0,1,1,2.75-2.75A2.75,2.75,0,0,1,273.11,227.64Z"/>
    <path class="cls-1" d="M294.3,229a4.59,4.59,0,1,0,4.58,4.59A4.6,4.6,0,0,0,294.3,229Zm0,7.34a2.75,2.75,0,1,1,2.75-2.75A2.75,2.75,0,0,1,294.3,236.33Z"/>
    <path class="cls-1" d="M315.08,198.78a4.59,4.59,0,1,0,4.58,4.58A4.59,4.59,0,0,0,315.08,198.78Zm0,7.33a2.75,2.75,0,1,1,2.75-2.75A2.75,2.75,0,0,1,315.08,206.11Z"/>
    <path class="cls-1" d="M273.11,303.43a4.59,4.59,0,1,0,4.58,4.58A4.59,4.59,0,0,0,273.11,303.43Zm0,7.34a2.76,2.76,0,1,1,2.75-2.76A2.76,2.76,0,0,1,273.11,310.77Z"/>
    <path class="cls-1" d="M79.28,269.88a4.59,4.59,0,1,0,4.58,4.58A4.59,4.59,0,0,0,79.28,269.88Zm0,7.34A2.76,2.76,0,1,1,82,274.46,2.76,2.76,0,0,1,79.28,277.22Z"/>
    <path class="cls-1" d="M273.11,120.93a4.59,4.59,0,1,0,4.58,4.59A4.6,4.6,0,0,0,273.11,120.93Zm0,7.34a2.75,2.75,0,1,1,2.75-2.75A2.75,2.75,0,0,1,273.11,128.27Z"/>
    <path class="cls-1" d="M312.33,146.21a4.59,4.59,0,1,0-4.59,4.58A4.59,4.59,0,0,0,312.33,146.21ZM307.74,149a2.75,2.75,0,1,1,2.75-2.75A2.75,2.75,0,0,1,307.74,149Z"/>
    <path class="cls-1" d="M113,161.44a4.59,4.59,0,1,0,4.58,4.59A4.6,4.6,0,0,0,113,161.44Zm0,7.34a2.76,2.76,0,1,1,2.75-2.75A2.75,2.75,0,0,1,113,168.78Z"/>
    <path class="cls-1" d="M193.24,81.48a4.59,4.59,0,1,0,4.58,4.59A4.6,4.6,0,0,0,193.24,81.48Zm0,7.34A2.75,2.75,0,1,1,196,86.07,2.75,2.75,0,0,1,193.24,88.82Z"/>
    <path class="cls-1" d="M218.5,67.36a4.58,4.58,0,1,0,4.59,4.58A4.59,4.59,0,0,0,218.5,67.36Zm0,7.33a2.75,2.75,0,1,1,2.75-2.75A2.75,2.75,0,0,1,218.5,74.69Z"/>
    <rect class="cls-1" x="192.32" y="89.73" width="1.83" height="35.78"/>
    <polygon class="cls-1" points="208.56 125.52 206.72 125.52 206.72 82.57 217.59 82.57 217.59 75.61 219.42 75.61 219.42 84.4 208.56 84.4 208.56 125.52"/>
    <polygon class="cls-1" points="112.09 147.13 112.09 129.95 95.62 129.95 95.62 128.12 113.92 128.12 113.92 145.29 135.99 145.29 135.99 147.13 112.09 147.13"/>
    <rect class="cls-1" x="112.09" y="146.21" width="1.83" height="16.15"/>
    <polygon class="cls-1" points="274.02 147.13 250.49 147.13 250.49 145.29 272.19 145.29 272.19 129.03 274.02 129.03 274.02 147.13"/>
    <polygon class="cls-1" points="293.58 163.28 272.19 163.28 272.19 146.21 274.02 146.21 274.02 161.44 291.75 161.44 291.75 145.29 304.08 145.29 304.08 147.13 293.58 147.13 293.58 163.28"/>
    <polygon class="cls-1" points="274.02 304.35 272.19 304.35 272.19 261.43 250.49 261.43 250.49 259.59 274.02 259.59 274.02 304.35"/>
    <polygon class="cls-1" points="113.92 275.38 82.94 275.38 82.94 273.55 112.09 273.55 112.09 259.59 135.99 259.59 135.99 261.43 113.92 261.43 113.92 275.38"/>
    <polygon class="cls-1" points="274.02 221.22 272.19 221.22 272.19 204.28 250.49 204.27 250.49 202.44 274.02 202.44 274.02 221.22"/>
    <polygon class="cls-1" points="295.21 229.91 293.38 229.91 293.38 204.28 273.11 204.28 273.11 202.44 295.21 202.44 295.21 229.91"/>
    <rect class="cls-1" x="294.3" y="202.44" width="17.11" height="1.83"/>
    <polygon class="cls-1" points="117.59 217.55 87.91 217.55 69.49 199.14 70.79 197.84 88.67 215.72 115.76 215.72 115.76 202.44 135.99 202.44 135.99 204.27 117.59 204.28 117.59 217.55"/>
    <path class="cls-1" d="M243.9,132v28.25H142.39V132H243.9m3-3H139.39v34.25H246.9V129Z"/>
    <path class="cls-1" d="M243.9,189v28.24H142.39V189H243.9m3-3H139.39v34.24H246.9V186Z"/>
    <path class="cls-1" d="M243.9,246.55v28.24H142.39V246.55H243.9m3-3H139.39v34.24H246.9V243.55Z"/>
    <path class="cls-1" d="M152.44,138.31a7.9,7.9,0,1,0,7.9,7.9A7.9,7.9,0,0,0,152.44,138.31Zm0,14.29a6.39,6.39,0,1,1,6.39-6.39A6.4,6.4,0,0,1,152.44,152.6Z"/>
    <path class="cls-1" d="M235.34,147.13h-63a.92.92,0,1,1,0-1.84h63a.92.92,0,1,1,0,1.84Z"/>
    <path class="cls-1" d="M152.44,211.26a7.9,7.9,0,1,0-7.89-7.9A7.92,7.92,0,0,0,152.44,211.26Zm0-14.29a6.39,6.39,0,1,1-6.39,6.39A6.4,6.4,0,0,1,152.44,197Z"/>
    <path class="cls-1" d="M235.34,204.27h-63a.92.92,0,1,1,0-1.83h63a.92.92,0,1,1,0,1.83Z"/>
    <path class="cls-1" d="M152.44,268.41a7.9,7.9,0,1,0-7.89-7.9A7.91,7.91,0,0,0,152.44,268.41Zm0-14.29a6.4,6.4,0,1,1-6.39,6.39A6.4,6.4,0,0,1,152.44,254.12Z"/>
    <path class="cls-1" d="M235.34,261.43h-63a.92.92,0,0,1,0-1.84h63a.92.92,0,1,1,0,1.84Z"/>
  </g>
  <g class="cls-2">
    <path class="cls-1" d="M189.79,114.7l-21.25-3.51A6.92,6.92,0,1,0,159.17,101a7.07,7.07,0,0,0-6.81.11,10.47,10.47,0,0,0-10.08-7.65,10.59,10.59,0,0,0-2.6.34,23.91,23.91,0,1,0-47.56-4.43,12,12,0,0,0-2.26-.22,11.9,11.9,0,0,0-10.07,5.54A12.63,12.63,0,1,0,63.1,111.77L45.39,114.7Z"/>
  </g>
  <g class="cls-2">
    <path class="cls-1" d="M253.38,316.39H354.77L348,314h-7.08a5,5,0,1,0-6.89-7.12,7.12,7.12,0,0,0-12.84-2.67,5.87,5.87,0,0,0-2.91-.76,6,6,0,0,0-1.91.31,11.14,11.14,0,0,0,.16-1.84,11.4,11.4,0,0,0-21-6.15A10.51,10.51,0,0,0,280,303.87a6.36,6.36,0,0,0-7.71,2.08,6,6,0,1,0-8.7,8h-3.4Z"/>
  </g>
</svg>
