<svg id="Layer_1" data-name="Layer 1" xmlns="http://www.w3.org/2000/svg" viewBox="0 0 380 380">
  <defs>
    <style>
      .cls-1, .cls-4 {
        fill: none;
      }

      .cls-2, .cls-3 {
        fill: #fff;
      }

      .cls-3 {
        opacity: 0.5;
      }

      .cls-4 {
        stroke: #fff;
        stroke-miterlimit: 10;
        stroke-width: 4px;
      }

      .cls-5 {
        fill: #d4d4d4;
      }
    </style>
  </defs>
  <title>icon</title>
  <path class="cls-1" d="M152.46,274.59a1.77,1.77,0,0,0,0,3.54A1.77,1.77,0,0,0,152.46,274.59Z"/>
  <path class="cls-1" d="M183,221.94a1.8,1.8,0,0,0-2.5,0l-.45.45a1.77,1.77,0,0,0,2.51,2.5c.15-.14.3-.29.44-.44A1.79,1.79,0,0,0,183,221.94Z"/>
  <g>
    <path class="cls-1" d="M159.32,290.43l4.59-9.28,8.88,2.5L174,284l10.82,3-2.89,28.14,5.42.08,5.62.08,39.31.58H233l10,.15h1.07l7.79.12-2.94-12.36s11.73-2.77,19.25-10.34a62.65,62.65,0,0,0,9-13l.37-.71a53.87,53.87,0,0,0,3.71-9.29c.07-.23.13-.46.19-.69A40.62,40.62,0,0,0,283,259a62.8,62.8,0,0,0,6.82-27.39c0-1.82,0-3.7-.19-5.62-.08-1-.19-2.07-.34-3.12,0,0-.4-3.07-1.4-7.79-.07-.3-.13-.6-.2-.91-1.9-8.65-5.7-22.13-12.52-32.81,0,0,1.51-2.35,2.3-7.62.11-.71.2-1.46.27-2.27a58.84,58.84,0,0,0-.49-13.57c-.09-.59-.17-1.18-.27-1.78a102.94,102.94,0,0,0-3.19-13.33c-.15-.51-.31-1-.47-1.54-.28-.86-.56-1.73-.87-2.63,0,0-.31-.6-.89-1.63l-.55-1c-3.23-5.58-11.6-18.84-22.45-26.95l-.63-.47a39.72,39.72,0,0,0-6.32-3.76,112.68,112.68,0,0,0-20-6.74l-1.22-.29a137.32,137.32,0,0,0-23.5-3.49l-1.61-.09c-1.35-.06-2.72-.11-4.12-.13-8.56-.14-21.69,2.5-33.59,7-.85.32-1.69.66-2.52,1-7,2.86-13.33,6.38-17.91,10.36-8.24,7.17-19.18,20.85-24,36.15-.12.38-.23.76-.34,1.14-.45,1.54-.84,3.09-1.15,4.66-.21,1-.39,2-.53,3.06-.1.76-.22,1.54-.35,2.32-1,6.06-2.28,12.68.39,22.09.11.39.23.78.35,1.18.18.56.37,1.14.57,1.72s.32.91.5,1.37a67.52,67.52,0,0,0,2.88,6.45L107.48,204l-.62.88-4,5.73-.47.68-10,14.36,16.21,6.91,2,.86,5.62,2.4-.49,2.73-.17,1-2.21,12.28-.11.64-2.15,12-.16.89-1.64,9.15s15.29,9.77,28.61,11.39a84,84,0,0,0,12.9,4.15l.94.19C154.63,290.75,157.37,291,159.32,290.43Z"/>
    <path class="cls-1" d="M302.37,197.54a2,2,0,0,1,2.34.07l9.87-9.87-11-11-3.13,3.12-13.21-13.2a2.85,2.85,0,0,1-3.57.32l-5.92,5.92Z"/>
    <polygon class="cls-1" points="116.24 235.82 110.62 233.42 115.75 238.55 116.24 235.82"/>
    <path class="cls-1" d="M178,80.64l-20.47,20.47c11.9-4.55,25-7.19,33.59-7,1.4,0,2.77.07,4.12.13L181.44,80.41A2.82,2.82,0,0,1,178,80.64Z"/>
    <path class="cls-1" d="M232.08,57.54a2,2,0,0,1-2,.14L217.31,70.42a1.31,1.31,0,0,1-.33,1.22,1.28,1.28,0,0,1-1.79,0,1.22,1.22,0,0,1-.32-1.19L204.23,59.78a1.67,1.67,0,0,1-1.59.09l-4.33,4.32-2-2L181.85,76.6a2.85,2.85,0,0,1,.25,3l14.73,14.73a137.32,137.32,0,0,1,23.5,3.49l26-26Z"/>
    <path class="cls-1" d="M301.82,198.09,277.44,173.7c-.79,5.27-2.3,7.62-2.3,7.62,6.82,10.68,10.62,24.16,12.52,32.81l14-14A2,2,0,0,1,301.82,198.09Z"/>
    <path class="cls-1" d="M264.55,90,247.08,72.54,221.55,98.06a112.68,112.68,0,0,1,20,6.74,39.72,39.72,0,0,1,6.32,3.76l16.51-16.51A2,2,0,0,1,264.55,90Z"/>
    <path class="cls-1" d="M184.78,287,174,284l-12.37,12.36a2.85,2.85,0,0,1,.2,2.86L179.64,317a1.78,1.78,0,0,1,1.7.46,1.75,1.75,0,0,1,0,2.51,1.78,1.78,0,0,1-1.7.46l-14.9,14.89a2.32,2.32,0,0,1-.07,2.49l8.9,8.89,14.81-14.8,32.36,32.36a2.83,2.83,0,0,1,2.22.44l8.09-8.09-39.33-39.33a2.85,2.85,0,0,1-3.61-.33,2.73,2.73,0,0,1-.8-1.75l-5.42-.08Z"/>
    <path class="cls-1" d="M282.73,163.38l-5.51-5.52a58.84,58.84,0,0,1,.49,13.57l5.2-5.19A2.85,2.85,0,0,1,282.73,163.38Z"/>
    <path class="cls-1" d="M239.3,337.27a1.66,1.66,0,0,1,2-.24l10.53-10.52a1.24,1.24,0,0,1,0-1.59L243,316.06l-10-.15-7.51,7.52Z"/>
    <path class="cls-1" d="M294.63,295.35l-.36-14.11,22.29-22.3a2.26,2.26,0,0,1-.35-.28,2,2,0,0,1-.08-2.76L291.2,231a2.81,2.81,0,0,1-1.41.6A62.8,62.8,0,0,1,283,259a40.62,40.62,0,0,1-1.51,10.82l14.36-14.36a1,1,0,0,1-.06-1l-6.1-6.09a.65.65,0,0,1-.58-.15.6.6,0,0,1,0-.86.58.58,0,0,1,.56-.16l5.1-5.1a.8.8,0,0,1,1.24-1,.83.83,0,0,1,0,1.13.8.8,0,0,1-1,.11l-5,5a.59.59,0,0,1,0,.77l6,6a1,1,0,0,1,1.31,1.4,1,1,0,0,1-1.22.13l-14.81,14.8a53.87,53.87,0,0,1-3.71,9.29l16.06,16.06A2,2,0,0,1,294.63,295.35Z"/>
    <path class="cls-1" d="M159.32,290.43c-1.95.54-4.69.32-7.56-.23l5.62,5.62a2.79,2.79,0,0,1,3.47-.23l11.94-11.94-8.88-2.5Z"/>
    <path class="cls-1" d="M-9.55-10V390H390.5V-10ZM162.11,62.07a1.26,1.26,0,0,1,1.61-.15l20.57-20.57a1.25,1.25,0,0,1,.16-1.62,1.27,1.27,0,0,1,1.8,0,1.24,1.24,0,0,1,0,1.75l12,12a1.25,1.25,0,0,1,1.55-.13l20.9-20.89a1.27,1.27,0,0,1,.16-1.61,1.27,1.27,0,1,1,1.8,1.8,1.25,1.25,0,0,1-1.6.16l-20.9,20.9a1.27,1.27,0,0,1-.16,1.61,1.27,1.27,0,0,1-2-1.47L185.92,41.77a1.23,1.23,0,0,1-1.28-.08L164.07,62.27a1.25,1.25,0,0,1,.07,1.28l8.07,8.07a.78.78,0,0,1,.78.19.8.8,0,0,1-.76,1.34l-6.75,6.75a1,1,0,0,1-.14,1.26,1,1,0,0,1-1.47,0,1,1,0,0,1,0-1.47,1.06,1.06,0,0,1,1.3-.13l6.66-6.66a.77.77,0,0,1,0-1l-8-8a1.28,1.28,0,0,1-1.76,0A1.29,1.29,0,0,1,162.11,62.07ZM75.66,146.26a.74.74,0,0,1,1.08,1l7.08,7.08a.75.75,0,0,1,.92-.05L97.11,142a.73.73,0,0,1,.06-.95.76.76,0,1,1,1.07,1.07.74.74,0,0,1-.94.08L85,154.5a.75.75,0,0,1-1.17.93.75.75,0,0,1-.14-.84l-7.14-7.13a.75.75,0,0,1-.72-.07L63.63,159.54a.76.76,0,0,1,0,.77l4.76,4.77a.47.47,0,0,1,.47.11.5.5,0,0,1,0,.68.44.44,0,0,1-.46.1l-4,4a.59.59,0,0,1-.08.74.61.61,0,0,1-.86-.86.63.63,0,0,1,.74-.08l4-4a.44.44,0,0,1,0-.55l-4.69-4.71a.74.74,0,0,1-1,0,.76.76,0,0,1,1-1.17l12.13-12.13A.76.76,0,0,1,75.66,146.26Zm210.21,178a.86.86,0,0,1-1.1-.07.89.89,0,0,1,0-1.24.85.85,0,0,1,1-.15l8.14-8.13a.85.85,0,0,1,0-.86L280.1,300a.88.88,0,0,1-.86,0l-5.45,5.43a.54.54,0,0,1-.9.52.47.47,0,0,1-.12-.51l-4.57-4.55a.73.73,0,0,1-.84-.1.68.68,0,0,1,0-1,.69.69,0,0,1,1,0,.71.71,0,0,1,.08.86l4.52,4.51a.49.49,0,0,1,.65,0L279,299.8a.86.86,0,0,1,0-1.17.88.88,0,0,1,1.22,0,.9.9,0,0,1,.14,1.09l13.81,13.83a.89.89,0,0,1,1.1.13.85.85,0,0,1-1.16,1.24L286,323a.84.84,0,0,1,.06,1l14.08,14.07a.87.87,0,0,1,1.09.12.86.86,0,0,1,0,1.22.87.87,0,0,1-1.32-1.12Z"/>
    <path class="cls-1" d="M64,177l-5,5,7.49,7.49a1,1,0,1,1-.14,1.49,1,1,0,0,1-.12-1.23l-7.48-7.49-7.44,7.44a1.3,1.3,0,0,1-.35,1.25,1.26,1.26,0,0,1-1.78,0,1.22,1.22,0,0,1-.32-1.2L38.18,179.13A1.63,1.63,0,0,1,36.3,179l-8.72,8.72,26.74,26.74,5.22-5.22a2.84,2.84,0,0,1,3.78-4.15l15.45-15.45L66,176.89A2,2,0,0,1,64,177Z"/>
    <path class="cls-1" d="M80.07,189.86l19,19a1,1,0,0,1,.16-.19,2,2,0,0,1,3.42,1.71l.19.19,4-5.73-6.77-6.77a2.84,2.84,0,1,1-.33-4.87l11.35-11.35c-2.67-9.41-1.36-16-.39-22.09a2.08,2.08,0,0,1-.38-.22Z"/>
    <path class="cls-1" d="M300,345.48,273.45,319a2.79,2.79,0,0,1-3.46.23l-37.45,37.45"/>
    <path class="cls-1" d="M100.84,197.36l6.64,6.64,7.93-11.39a67.52,67.52,0,0,1-2.88-6.45.8.8,0,0,1-.51-1.36h0c-.2-.58-.39-1.16-.57-1.72l-10.84,10.84A2.84,2.84,0,0,1,100.84,197.36Z"/>
    <path class="cls-1" d="M104.86,248a3.07,3.07,0,0,1,0-4.33h0l-15-15-5.65,5.66L81.6,231.7l-1.18.27a2.06,2.06,0,0,1-.34,1.42l31,31,2.15-12L109,248.17A3.06,3.06,0,0,1,104.86,248Z"/>
    <path class="cls-1" d="M102.1,211.56a2,2,0,0,1-2.83,0L79.94,230.92a2.17,2.17,0,0,1,.34.53l1.49-.33,2.48,2.48,5.65-5.66,15.39,15.39a3,3,0,0,1,4.07,4.47l4,4,2.21-12.28-7-7L92.4,225.65l10-14.36,0,0A1.59,1.59,0,0,1,102.1,211.56Z"/>
    <path class="cls-2" d="M280.53,127.94a2.31,2.31,0,0,0,2.86-.35,2.31,2.31,0,0,0-3.27-3.26,2.32,2.32,0,0,0-.34,2.85L271,136l.55,1Z"/>
    <path class="cls-3" d="M270,319.21a2.79,2.79,0,0,0,3.46-.23l.65-.84a2.84,2.84,0,1,0-4.86.32l-37.45,37.45-39.33-39.33a2.93,2.93,0,0,0,.47-1.26l-5.62-.08a2.73,2.73,0,0,0,.8,1.75,2.85,2.85,0,0,0,3.61.33l39.33,39.33L223,364.74a2.83,2.83,0,0,0-2.22-.44l-32.36-32.36-14.81,14.8-8.9-8.89a2.32,2.32,0,0,0,.07-2.49l14.9-14.89a1.78,1.78,0,0,0,1.7-.46,1.75,1.75,0,0,0,0-2.51,1.78,1.78,0,0,0-1.7-.46L161.79,299.2a2.85,2.85,0,0,0-.2-2.86L174,284l-1.17-.33-11.94,11.94a2.79,2.79,0,0,0-3.47.23l-5.62-5.62-.94-.19,6.2,6.2a2.81,2.81,0,0,0,.23,3.72,2.85,2.85,0,0,0,3.89.12l17.58,17.58a1.77,1.77,0,0,0,0,2.26L164,334.62a2.33,2.33,0,0,0-2.86.33,2.31,2.31,0,0,0,0,3.26,2.27,2.27,0,0,0,3.17,0l9.25,9.24,14.79-14.8,31.82,31.82a2.84,2.84,0,1,0,3.21,4.58,2.81,2.81,0,0,0,.32-3.59Z"/>
    <path class="cls-2" d="M80.08,233.39a2.06,2.06,0,0,0,.34-1.42l1.18-.27,2.65,2.65,5.65-5.66,15,15h0a3,3,0,0,0,4.1,4.51l4.28,4.28.11-.64-4-4a3,3,0,0,0-4.07-4.47L89.9,227.94l-5.65,5.66-2.48-2.48-1.49.33a2.17,2.17,0,0,0-.34-.53L99.27,211.6a2,2,0,0,0,2.83,0,1.59,1.59,0,0,0,.26-.32l0,0,.47-.68-.19-.19a2,2,0,0,0-3.42-1.71,1,1,0,0,0-.16.19l-19-19,30.27-30.28a2.08,2.08,0,0,0,.38.22c.13-.78.25-1.56.35-2.32.14-1,.32-2,.53-3.06a2.83,2.83,0,0,0-2,4.41L79.31,189.1,66.57,176.35a2,2,0,1,0-3.19.21l-5,4.95-7.77-7.77a1,1,0,0,0-.07-1.19l9-9a1,1,0,0,0,1.32-1.42,1,1,0,0,0-1.22-.12L44.18,146.43a1,1,0,0,0-.11-1.21,1,1,0,0,0-1.42,1.32l-6,6a.55.55,0,0,0-.73,0l-5-5.05a.79.79,0,0,0-.13-.95.76.76,0,0,0-1.11,0,.75.75,0,0,0,0,1.08.8.8,0,0,0,1,.14l5.1,5.1a.56.56,0,0,0,.15.56.59.59,0,0,0,.86,0,.58.58,0,0,0,.13-.55L43,146.77a1,1,0,0,0,.95-.07l15.55,15.54a1,1,0,0,0-.06,1l-9.11,9.11a1,1,0,1,0,.11,1.67l7.78,7.77-7.33,7.33a1.24,1.24,0,0,0-1.58,0L38.73,178.58a1.64,1.64,0,1,0-2.79,0l-9.11,9.1,27.49,27.49,5.59-5.6a2.84,2.84,0,0,0,4.17-3.77l15.45-15.45L98.74,209.6a2,2,0,0,0,.09,1.37l-19.5,19.48A2,2,0,0,0,77,233.71a2,2,0,0,0,2.57.21l31.4,31.4.16-.89Zm-16.76-28.3a2.84,2.84,0,0,0-3.78,4.15l-5.22,5.22L27.58,187.72,36.3,179a1.63,1.63,0,0,0,1.88.13l10.64,10.64a1.22,1.22,0,0,0,.32,1.2,1.26,1.26,0,0,0,1.78,0,1.3,1.3,0,0,0,.35-1.25l7.44-7.44,7.48,7.49a1,1,0,0,0,.12,1.23,1,1,0,1,0,.14-1.49L59,182.05l5-5a2,2,0,0,0,2-.14l12.74,12.75Z"/>
    <path class="cls-2" d="M289.79,231.57a2.81,2.81,0,0,0,1.41-.6l24.93,24.93a2,2,0,0,0,.08,2.76,2.26,2.26,0,0,0,.35.28l-22.29,22.3.36,14.11a2,2,0,0,0-1,.47l-16.06-16.06-.37.71,16,16a2.06,2.06,0,0,0,.37,2.34,2,2,0,0,0,3.11-2.55l33-33a2,2,0,0,0,2.55-3.12,2,2,0,0,0-3.11,2.57l-33,33a2.08,2.08,0,0,0-.93-.33l-.36-13.89,22.28-22.28a2,2,0,1,0-.34-3.74l-25-25A2.84,2.84,0,0,0,289.6,226C289.76,227.87,289.82,229.75,289.79,231.57Z"/>
    <path class="cls-3" d="M57,136.21a1.71,1.71,0,0,0,.47,1.68,1.76,1.76,0,0,0,3-1.71l17.85-17.84a2.83,2.83,0,0,0,2.88-.18l31.6,31.6c.11-.38.22-.76.34-1.14l-31.2-31.2a2.84,2.84,0,0,0-.34-3.61,2.94,2.94,0,0,0-.87-.58L84,110l19.83,19.83,6-6a2.83,2.83,0,0,0,4-3.85l45.51-45.52A2.83,2.83,0,1,0,159,70L141.41,52.43a1.93,1.93,0,0,0-.92-2.84,1.64,1.64,0,0,0-1.7.45,1.75,1.75,0,0,0,0,2.51,1.78,1.78,0,0,0,1.72.46l17.84,17.85a2.8,2.8,0,0,0,.17,2.87L113,119.24a2.81,2.81,0,0,0-2.85-.18l-.85.65a2.85,2.85,0,0,0-.16,3.57l-5.4,5.4L83.93,108.86,79.79,113a2.77,2.77,0,0,0-2.25.8,2.85,2.85,0,0,0-.11,3.89l-17.6,17.59A1.85,1.85,0,0,0,57,136.21Z"/>
    <path class="cls-2" d="M96.48,193.75a2.84,2.84,0,0,0,3.61,4.36l6.77,6.77.62-.88-6.64-6.64a2.84,2.84,0,0,0-.22-3.45l10.84-10.84c-.12-.4-.24-.79-.35-1.18L99.76,193.24A2.85,2.85,0,0,0,96.48,193.75Z"/>
    <path class="cls-2" d="M278.59,147.58a2,2,0,0,0,.25,2.56,2,2,0,0,0,2.87,0,2,2,0,0,0-2.58-3.1l-5.84-5.83c.16.52.32,1,.47,1.54Z"/>
    <polygon class="cls-2" points="115.75 238.55 110.62 233.42 108.61 232.56 115.58 239.53 115.75 238.55"/>
    <path class="cls-2" d="M251.84,324.92a1.24,1.24,0,0,0,0,1.59L241.3,337a1.66,1.66,0,0,0-2,.24l-13.84-13.84,7.51-7.52h-.73l-7.53,7.53L239,337.71a1.59,1.59,0,0,0,.3,1.87,1.63,1.63,0,0,0,2.31,0,1.66,1.66,0,0,0,.24-2.06l10.62-10.62a1.24,1.24,0,0,0,1.25-.31,1.28,1.28,0,0,0,0-1.8,1.26,1.26,0,0,0-1.22-.31l-8.43-8.44H243Z"/>
    <path class="cls-3" d="M282.73,163.38a2.85,2.85,0,0,0,.18,2.86l-5.2,5.19c-.07.81-.16,1.56-.27,2.27l24.38,24.39a2,2,0,0,0-.12,2l-14,14c.07.31.13.61.2.91l14.31-14.32a2,2,0,0,0,3.08-2.51l10.46-10.46-12.14-12.14-3.14,3.15L287.71,166a2.82,2.82,0,0,0-4.32-3.52L277,156.08c.1.6.18,1.19.27,1.78Zm.94,3.61a2.85,2.85,0,0,0,3.57-.32l13.21,13.2,3.13-3.12,11,11-9.87,9.87a2,2,0,0,0-2.34-.07l-24.62-24.63Z"/>
    <path class="cls-2" d="M178,80.64a2.82,2.82,0,0,0,3.46-.23l13.78,13.78,1.61.09L182.1,79.55a2.85,2.85,0,0,0-.25-3l14.44-14.44,2,2,4.33-4.32a1.67,1.67,0,0,0,1.59-.09l10.64,10.64a1.22,1.22,0,0,0,.32,1.19,1.28,1.28,0,0,0,1.79,0,1.31,1.31,0,0,0,.33-1.22L230,57.68a2,2,0,0,0,2-.14l14.24,14.24-26,26,1.22.29,25.53-25.52L264.55,90a2,2,0,0,0-.14,2L247.9,108.56l.63.47,16.35-16.36a2,2,0,0,0,2.76-3,2,2,0,0,0-2.56-.24L247.61,72l10.33-10.32a2.84,2.84,0,1,0-.27-4.47l-17.6-17.59a1.78,1.78,0,0,0,0-2.24l14.74-14.73a2.33,2.33,0,1,0-.75-.76l-14.91,14.9a1.73,1.73,0,0,0-1.68.46,1.75,1.75,0,0,0,0,2.51,1.79,1.79,0,0,0,1.72.46L257,58.08a2.83,2.83,0,0,0,.18,2.84L246.85,71.25,232.61,57a2,2,0,1,0-3.19.21L216.88,69.75a1.27,1.27,0,0,0-1.6,0L204.76,59.24a1.65,1.65,0,1,0-2.73.12l-3.73,3.73L196.24,61l-15,15a2.84,2.84,0,0,0-4.05,3.87L155,102.11c.83-.34,1.67-.68,2.52-1Z"/>
    <path class="cls-2" d="M163.85,63.92l8,8a.77.77,0,0,0,0,1l-6.66,6.66a1.06,1.06,0,0,0-1.3.13,1,1,0,0,0,0,1.47,1,1,0,0,0,1.47,0,1,1,0,0,0,.14-1.26l6.75-6.75a.8.8,0,0,0,.76-1.34.78.78,0,0,0-.78-.19l-8.07-8.07a1.25,1.25,0,0,0-.07-1.28l20.57-20.58a1.23,1.23,0,0,0,1.28.08L198,53.84a1.27,1.27,0,0,0,2,1.47,1.27,1.27,0,0,0,.16-1.61l20.9-20.9a1.25,1.25,0,0,0,1.6-.16,1.27,1.27,0,1,0-1.8-1.8,1.27,1.27,0,0,0-.16,1.61l-20.9,20.89a1.25,1.25,0,0,0-1.55.13l-12-12a1.24,1.24,0,0,0,0-1.75,1.27,1.27,0,0,0-1.8,0,1.25,1.25,0,0,0-.16,1.62L163.72,61.92a1.26,1.26,0,0,0-1.61.15,1.29,1.29,0,0,0,0,1.82A1.28,1.28,0,0,0,163.85,63.92Z"/>
    <path class="cls-2" d="M300,339.44a.88.88,0,0,0,1.22,0,.86.86,0,0,0,0-1.22.87.87,0,0,0-1.09-.12L286.08,324a.84.84,0,0,0-.06-1l8.08-8.07a.85.85,0,0,0,1.16-1.24.89.89,0,0,0-1.1-.13l-13.81-13.83a.9.9,0,0,0-.14-1.09.88.88,0,0,0-1.22,0,.86.86,0,0,0,0,1.17l-5.35,5.37a.49.49,0,0,0-.65,0l-4.52-4.51a.71.71,0,0,0-.08-.86.69.69,0,0,0-1,0,.68.68,0,0,0,0,1,.73.73,0,0,0,.84.1l4.57,4.55a.47.47,0,0,0,.12.51.54.54,0,0,0,.9-.52l5.45-5.43a.88.88,0,0,0,.86,0l13.82,13.82a.85.85,0,0,0,0,.86l-8.14,8.13a.85.85,0,0,0-1,.15.89.89,0,0,0,0,1.24.86.86,0,0,0,1.1.07l14.06,14.07A.88.88,0,0,0,300,339.44Z"/>
    <path class="cls-2" d="M112,185.93a.77.77,0,0,0,.51.23c-.18-.46-.34-.92-.5-1.37h0A.78.78,0,0,0,112,185.93Z"/>
    <path class="cls-2" d="M297.3,255.54a1,1,0,0,0-1.31-1.4l-6-6a.59.59,0,0,0,0-.77l5-5a.8.8,0,0,0,1-.11.83.83,0,0,0,0-1.13.8.8,0,0,0-1.24,1l-5.1,5.1a.58.58,0,0,0-.56.16.6.6,0,0,0,0,.86.65.65,0,0,0,.58.15l6.1,6.09a1,1,0,0,0,.06,1l-14.36,14.36c-.06.23-.12.46-.19.69l14.81-14.8A1,1,0,0,0,297.3,255.54Z"/>
    <path class="cls-2" d="M62.48,159.43a.75.75,0,0,0,0,1.08.74.74,0,0,0,1,0l4.69,4.71a.44.44,0,0,0,0,.55l-4,4a.63.63,0,0,0-.74.08.61.61,0,0,0,.86.86.59.59,0,0,0,.08-.74l4-4a.44.44,0,0,0,.46-.1.5.5,0,0,0,0-.68.47.47,0,0,0-.47-.11l-4.76-4.77a.76.76,0,0,0,0-.77l12.15-12.15a.75.75,0,0,0,.72.07l7.14,7.13a.75.75,0,0,0,.14.84A.75.75,0,0,0,85,154.5L97.3,142.15a.74.74,0,0,0,.94-.08A.76.76,0,1,0,97.17,141a.73.73,0,0,0-.06.95L84.74,154.31a.75.75,0,0,0-.92.05l-7.08-7.08a.74.74,0,0,0-1.08-1,.76.76,0,0,0-.09,1L63.44,159.34A.76.76,0,0,0,62.48,159.43Z"/>
  </g>
  <g>
    <g>
      <path class="cls-4" d="M137.84,184.42h27.91s-3.63,16.29-19.05,16.29C136.47,200.71,137.84,184.42,137.84,184.42Z"/>
      <path class="cls-4" d="M197.5,102.25c-70.92,0-88.9,54.94-76.25,91.2-6.86,9.7-13.88,20.41-20.73,30.11,6.48,3.08,13.4,4.73,22.25,9.1-1.49,12.44-6.16,26.43-7.65,38.87,14.63,6.47,25.7,7.61,41.23,11.43,7.25-16.31,14.64-35.85,19.2-53.12,3.88,0,7.63-.11,11.25-.31a29.78,29.78,0,0,1,54.91-15C297.2,180.64,267.88,102.25,197.5,102.25Z"/>
    </g>
    <g>
      <g>
        <path class="cls-1" d="M244.47,290.43l-.62-5.47-.68-6-.21-1.79-3.2-28a29.22,29.22,0,0,0,3.37-5.19,29.8,29.8,0,1,0-49.93,5l-.7,6.34-.23,2-.18,1.63-.21,1.86-.56,5-1.19,10.79-.73,6.54-.2,1.79-3,27.28H247L245.68,301l-.2-1.77Z"/>
        <path class="cls-1" d="M263.28,224.29c-.23-.55-.46-1.1-.71-1.65-.12.84-.27,1.68-.45,2.5A9.88,9.88,0,0,0,263.28,224.29Z"/>
        <path class="cls-1" d="M257,263.37c-6.84-.13-14.26-6.33-10.32-13.44,1.88-3.39,6.19-5.29,9.64-3,3.63,2.46,4.1,7.78,3.56,11.72a24,24,0,0,1-.49,2.53,10.34,10.34,0,0,0,4-2.09c9.48-8.08,4.83-21.83,1.18-31.58-.2-.54-.41-1.08-.62-1.62a12.6,12.6,0,0,1-2.4,1.48,1.41,1.41,0,0,0-.06.22A26.19,26.19,0,0,1,256.7,237a18.92,18.92,0,0,1-4,3.67,20.15,20.15,0,0,1-9.56,3.37,29.22,29.22,0,0,1-3.37,5.19l3.2,28C249.54,275.33,254.66,269.84,257,263.37Z"/>
        <path class="cls-1" d="M267.59,221.87a15.42,15.42,0,0,1-2.18,2.74c1.21,3,2.25,6.11,3.19,9.08,3.08,9.72,3.85,24.77-8,29.1a8.47,8.47,0,0,1-1.8.45c-2.4,7.41-8,13.79-15.62,15.76l.68,6a50.8,50.8,0,0,0,6.24-2.95,51.57,51.57,0,0,0,4.51-2.83,55.68,55.68,0,0,0,5.71-4.59c1.3-1.2,2.56-2.46,3.75-3.78a58.34,58.34,0,0,0,4.09-5.06c1.06-1.45,2-2.95,2.94-4.48a59.42,59.42,0,0,0,4-8.06c.68-1.64,1.28-3.32,1.81-5,0-.12.06-.24.1-.37a56.47,56.47,0,0,0-3-14.58A33,33,0,0,0,267.59,221.87Z"/>
        <path class="cls-1" d="M266.15,220.47a19.67,19.67,0,0,0-3.16-2.33c0,.32,0,.64-.05,1,.61,1.23,1.2,2.48,1.74,3.74A11.67,11.67,0,0,0,266.15,220.47Z"/>
        <path class="cls-1" d="M89.5,116v250.5H355V116ZM284.84,234.33c-.12,1.81-.3,3.63-.57,5.45a67.58,67.58,0,0,1-1.43,7.07c-.24.93-.49,1.85-.78,2.76-.52,1.7-1.11,3.39-1.78,5-.48,1.23-1,2.44-1.58,3.64-1.94,19.47-13.11,37.87-33,42.76L247,312.25H186.17l3-27.28q-16.2-4.5-32.22-9.6c-1.09-.34-.62-2.05.47-1.7q15.88,5.06,32,9.51l.73-6.54q-2.72-.81-5.35-1.83a2.26,2.26,0,0,1-3.93-1.69c-1.46-.67-2.91-1.39-4.32-2.16-1.4,2.32-5,.19-3.79-2.25-1.08-.68-2.14-1.4-3.19-2.14-1.71,1.46-4.84-.37-3.46-2.56l0,0c-.27-.22-.54-.42-.8-.64-.81-.67-1.6-1.35-2.37-2.06-.55-.5,4.18-5,4.18-5s-.62-6.28.2-5.43c.33.35.67.7,1,1,1,1,2,1.86,3,2.75,1.3-2.52,5.22-.52,3.94,2-.13.26-.28.51-.41.77,1,.69,1.91,1.35,2.89,2l.14-.24c1.36-2.51,5.19-.27,3.82,2.23l-.13.24c.74.4,1.49.79,2.25,1.16,0-.14.08-.29.13-.43.81-2.74,5-1.35,4.21,1.39l-.26.84c1.12.45,2.25.85,3.38,1.23l.56-5c-9.11-4-16.12-10.4-21.41-19.94A.89.89,0,0,1,172,240c5,9.05,11.57,15.12,20.09,19l.18-1.63a40.94,40.94,0,0,1-19.43-22.4c-.4-1.07.31-3,.71-2a43.6,43.6,0,0,0,18.95,22.36l.7-6.34a29.78,29.78,0,1,1,52.13-10.69,13.69,13.69,0,0,0,4.55-2,14.23,14.23,0,0,0,3.77-3.77,19.59,19.59,0,0,0,2.1-4,10.17,10.17,0,0,1-5.93-2.15c-3.69-2.94-3.7-8.08.31-10.8a10.13,10.13,0,0,1,7.58-1.32c0-.22,0-.45,0-.67a32.3,32.3,0,0,0-4.88-5.66c-.52-.48-1.06-.93-1.62-1.36s.17-2.09,1.09-1.38c.54.42,1.07.85,1.58,1.3a33.5,33.5,0,0,1,3.48,3.66c0-.11,0-.23-.05-.35q-.21-1.4-.51-2.76a40.84,40.84,0,0,0-1.11-4.16c-.18-.57-.37-1.13-.58-1.67-.55-1.5,1.24.36,2.2-.54s1.41-4.6,2.12-2.92a41.94,41.94,0,0,1,1.79,5.06,48.84,48.84,0,0,1,1.41,6.7,49.64,49.64,0,0,1,.44,5.29c0,.44,0,.87,0,1.31a18.46,18.46,0,0,1,2.3,1.39c.53.38,1,.78,1.53,1.2a22.65,22.65,0,0,0,.21-12.32,40.59,40.59,0,0,0-2.63-7.17c-.46-1-1-2-1.5-2.93-.36-.66-.74-1.3-1.13-1.94-.65-1.07.45-2.47,1.08-1.46.42.68.84,1.37,1.24,2.07.54.95,1.06,1.91,1.56,2.89,3.72,7.42,5.85,15.73,2.78,22.38a33.47,33.47,0,0,1,6.87,11.34,55.53,55.53,0,0,1,3,11.35c.21-1,.4-2,.56-2.95.3-1.76.51-3.52.64-5.29a65.17,65.17,0,0,0,.17-7.39c-.06-1.77-.18-3.53-.38-5.28a72,72,0,0,0-1.34-8.12q-.57-2.59-1.33-5.15a78.43,78.43,0,0,0-2.77-8c-.65-1.64-1.37-3.26-2.13-4.86-.47-1-1-2-1.49-3-.85-1.62-1.74-3.22-2.68-4.78l-.37-.62c-.64-1-1.3-2.08-2-3.1-.84-1.26,2.18.46,3.18-.47s-.52-4.94.21-3.86q1.46,2.13,2.81,4.33t2.74,4.76c.8,1.46,1.54,2.94,2.26,4.44s1.48,3.22,2.16,4.86a86.86,86.86,0,0,1,3,8.6c.52,1.72,1,3.46,1.37,5.2a80.64,80.64,0,0,1,1.55,9c.19,1.75.34,3.51.41,5.27A72.53,72.53,0,0,1,284.84,234.33Z"/>
        <path class="cls-1" d="M256,249c-5.27-3.94-10.38,3.1-7.7,7.94a9.36,9.36,0,0,0,9.25,4.61,21.88,21.88,0,0,0,.76-5.15C258.32,254.27,257.89,250.45,256,249Z"/>
        <path class="cls-1" d="M257.78,216.1a8.54,8.54,0,0,0-6.23.69c-4.57,2.74-2.63,7.61,1.25,9.28a9.25,9.25,0,0,0,3.57.75c0-.07.05-.14.07-.2a31.15,31.15,0,0,0,1.08-5.22A38.72,38.72,0,0,0,257.78,216.1Z"/>
        <path class="cls-1" d="M267.58,274.84q-1.8,2-3.77,3.76a60.1,60.1,0,0,1-6.76,5.37c-1.46,1-3,1.93-4.53,2.79a54.16,54.16,0,0,1-8.05,3.67l1,8.84c17.38-4.42,27.64-19.46,30.72-36.22l-.41.72c-.89,1.53-1.86,3-2.89,4.47A65.05,65.05,0,0,1,267.58,274.84Z"/>
        <path class="cls-2" d="M177.78,259.43c-1-.63-1.94-1.29-2.89-2-1.5,2.92-3.1,5.79-4.85,8.57a2.38,2.38,0,0,1-.49.55c1,.74,2.11,1.46,3.19,2.14a.26.26,0,0,1,0-.08Z"/>
        <path class="cls-2" d="M187.94,264.62q-1.4,4.74-2.8,9.47a2.11,2.11,0,0,1-.36.72q2.64,1,5.35,1.83l1.19-10.79C190.19,265.47,189.06,265.07,187.94,264.62Z"/>
        <path class="cls-2" d="M171.36,254.65c-1-.89-2-1.79-3-2.75-.35-.34-.69-.69-1-1-.82-.85-.2,5.43-.2,5.43s-4.3,4.87-3.75,5.37c.78.71,1.13,1,1.94,1.67.26.22.53.42.8.64q2.83-4.53,5.23-9.3Z"/>
        <path class="cls-2" d="M183.86,262.82c-.76-.37-1.51-.76-2.25-1.16l-5,9.21-.06.09c1.41.77,2.86,1.49,4.32,2.16a3.28,3.28,0,0,1,.08-.41Q182.4,267.76,183.86,262.82Z"/>
        <path class="cls-5" d="M170,266c1.75-2.78,3.35-5.65,4.85-8.57.13-.26.28-.51.41-.77,1.28-2.55-2.64-4.55-3.94-2v0q-2.4,4.77-5.23,9.3l0,0c-1.38,2.19,1.75,4,3.46,2.56A2.38,2.38,0,0,0,170,266Z"/>
        <path class="cls-5" d="M181.61,261.66l.13-.24c1.37-2.5-2.46-4.74-3.82-2.23l-.14.24-5,9.2a.26.26,0,0,0,0,.08c-1.24,2.44,2.39,4.57,3.79,2.25l.06-.09Z"/>
        <path class="cls-5" d="M187.94,264.62l.26-.84c.8-2.74-3.4-4.13-4.21-1.39-.05.14-.09.29-.13.43q-1.47,4.94-2.93,9.89a3.28,3.28,0,0,0-.08.41,2.26,2.26,0,0,0,3.93,1.69,2.11,2.11,0,0,0,.36-.72Q186.55,269.37,187.94,264.62Z"/>
        <path class="cls-2" d="M253.83,206.53c-.51-.45-1-.88-1.58-1.3-.92-.71-1.74.88-1.09,1.38s1.1.88,1.62,1.36a32.3,32.3,0,0,1,4.88,5.66c-.07-1.15-.19-2.3-.35-3.44A33.5,33.5,0,0,0,253.83,206.53Z"/>
        <path class="cls-2" d="M263,218.14a19.67,19.67,0,0,1,3.16,2.33,11.67,11.67,0,0,1-1.47,2.36c-.54-1.26-1.13-2.51-1.74-3.74-.07,1.14-.18,2.26-.33,3.37,0,.06,0,.12,0,.18.25.55.48,1.1.71,1.65a9.88,9.88,0,0,1-1.16.85q-.25,1.16-.57,2.28a12.6,12.6,0,0,0,2.4-1.48c.21.54.42,1.08.62,1.62,3.65,9.75,8.3,23.5-1.18,31.58a10.34,10.34,0,0,1-4,2.09,24,24,0,0,0,.49-2.53c.54-3.94.07-9.26-3.56-11.72-3.45-2.34-7.76-.44-9.64,3-3.94,7.11,3.48,13.31,10.32,13.44-2.3,6.47-7.42,12-14,13.84l.21,1.79c7.58-2,13.22-8.35,15.62-15.76a8.47,8.47,0,0,0,1.8-.45c11.86-4.33,11.09-19.38,8-29.1-.94-3-2-6.05-3.19-9.08a15.42,15.42,0,0,0,2.18-2.74,33,33,0,0,1,6.47,11.37,56.47,56.47,0,0,1,3,14.58c.24-.79.48-1.59.68-2.39s.41-1.65.58-2.48a55.53,55.53,0,0,0-3-11.35,33.47,33.47,0,0,0-6.87-11.34c3.07-6.65.94-15-2.78-22.38-.5-1-1-1.94-1.56-2.89-.4-.7-.82-1.39-1.24-2.07-.63-1-1.73.39-1.08,1.46.39.64.77,1.28,1.13,1.94.53,1,1,1.93,1.5,2.93a40.59,40.59,0,0,1,2.63,7.17,22.65,22.65,0,0,1-.21,12.32c-.5-.42-1-.82-1.53-1.2a18.46,18.46,0,0,0-2.3-1.39C263,216.81,263,217.48,263,218.14Zm-5.48,43.42a9.36,9.36,0,0,1-9.25-4.61c-2.68-4.84,2.43-11.88,7.7-7.94,1.93,1.44,2.36,5.26,2.31,7.4A21.88,21.88,0,0,1,257.51,261.56Z"/>
        <path class="cls-2" d="M245.48,299.27l.2,1.77c19.91-4.89,31.08-23.29,33-42.76q-1.15,2.43-2.5,4.77C273.12,279.81,262.86,294.85,245.48,299.27Z"/>
        <path class="cls-2" d="M252.8,226.07c-3.88-1.67-5.82-6.54-1.25-9.28a8.54,8.54,0,0,1,6.23-.69c0-.33,0-.65,0-1s0-.55-.05-.83a10.13,10.13,0,0,0-7.58,1.32c-4,2.72-4,7.86-.31,10.8a10.17,10.17,0,0,0,5.93,2.15c.22-.57.44-1.15.62-1.75A9.25,9.25,0,0,1,252.8,226.07Z"/>
        <path class="cls-2" d="M278.56,198.48l-4.72,2.31a78.43,78.43,0,0,1,2.77,8,28.19,28.19,0,0,0,5-1.69A86.86,86.86,0,0,0,278.56,198.48Z"/>
        <path class="cls-2" d="M250.09,282a50.8,50.8,0,0,1-6.24,2.95l.62,5.47a54.16,54.16,0,0,0,8.05-3.67C251.79,285.14,251,283.56,250.09,282Z"/>
        <path class="cls-2" d="M279.66,227.32a65.17,65.17,0,0,1-.17,7.39,28.22,28.22,0,0,0,5.35-.38,72.53,72.53,0,0,0,.09-7.8Z"/>
        <path class="cls-2" d="M274.14,189.18q-1.93,1.89-3.92,3.74c.51,1,1,2,1.49,3l4.69-2.31C275.68,192.12,274.94,190.64,274.14,189.18Z"/>
        <path class="cls-2" d="M263.81,278.6l-3.5-4a55.68,55.68,0,0,1-5.71,4.59q1.31,2.34,2.45,4.79A60.1,60.1,0,0,0,263.81,278.6Z"/>
        <path class="cls-2" d="M268.59,180.09c-.73-1.08.73,3-.21,3.86s-3.34.23-2.51,1.49c.68,1,.66,1,1.3,2.08l.37.62q1.95-1.83,3.86-3.72Q270.05,182.21,268.59,180.09Z"/>
        <path class="cls-2" d="M278.85,240c-.16,1-.35,2-.56,2.95s-.36,1.66-.58,2.48-.44,1.6-.68,2.39c0,.13-.07.25-.1.37l5.13,1.42c.29-.91.54-1.83.78-2.76a67.58,67.58,0,0,0,1.43-7.07A30.7,30.7,0,0,1,278.85,240Z"/>
        <path class="cls-2" d="M272.9,268.24c-1.56-.87-3.14-1.71-4.75-2.49a58.34,58.34,0,0,1-4.09,5.06c1.18,1.34,2.35,2.69,3.52,4A65.05,65.05,0,0,0,272.9,268.24Z"/>
        <path class="cls-2" d="M283,212.28a32.84,32.84,0,0,1-5,1.64,72,72,0,0,1,1.34,8.12c1.75-.27,3.49-.53,5.24-.78A80.64,80.64,0,0,0,283,212.28Z"/>
        <path class="cls-2" d="M275.12,253.21a59.42,59.42,0,0,1-4,8.06q2.39,1.19,4.7,2.5l.41-.72q1.35-2.34,2.5-4.77c.56-1.2,1.1-2.41,1.58-3.64Z"/>
        <path class="cls-5" d="M257.05,284q-1.14-2.45-2.45-4.79a51.57,51.57,0,0,1-4.51,2.83c.88,1.55,1.7,3.13,2.43,4.75C254.07,285.9,255.59,285,257.05,284Z"/>
        <path class="cls-5" d="M267.58,274.84c-1.17-1.34-2.34-2.69-3.52-4-1.19,1.32-2.45,2.58-3.75,3.78l3.5,4Q265.77,276.8,267.58,274.84Z"/>
        <path class="cls-5" d="M272.9,268.24c1-1.44,2-2.94,2.89-4.47q-2.31-1.32-4.7-2.5c-.91,1.53-1.88,3-2.94,4.48C269.76,266.53,271.34,267.37,272.9,268.24Z"/>
        <path class="cls-5" d="M276.93,248.19c-.53,1.7-1.13,3.38-1.81,5l5.16,1.43c.67-1.64,1.26-3.33,1.78-5Z"/>
        <path class="cls-5" d="M279.49,234.71c-.13,1.77-.34,3.53-.64,5.29a30.7,30.7,0,0,0,5.42-.22c.27-1.82.45-3.64.57-5.45A28.22,28.22,0,0,1,279.49,234.71Z"/>
        <path class="cls-5" d="M284.52,221.26c-1.75.25-3.49.51-5.24.78.2,1.75.32,3.51.38,5.28l5.27-.79C284.86,224.77,284.71,223,284.52,221.26Z"/>
        <path class="cls-5" d="M281.6,207.08a28.19,28.19,0,0,1-5,1.69q.76,2.55,1.33,5.15a32.84,32.84,0,0,0,5-1.64C282.57,210.54,282.12,208.8,281.6,207.08Z"/>
        <path class="cls-5" d="M276.4,193.62l-4.69,2.31c.76,1.6,1.48,3.22,2.13,4.86l4.72-2.31C277.88,196.84,277.16,195.21,276.4,193.62Z"/>
        <path class="cls-5" d="M271.4,184.42q-1.9,1.89-3.86,3.72c.94,1.56,1.83,3.16,2.68,4.78q2-1.84,3.92-3.74Q272.83,186.77,271.4,184.42Z"/>
        <path class="cls-2" d="M252.69,240.63a40.68,40.68,0,0,0-2.81-4.34,13.69,13.69,0,0,1-4.55,2,29.68,29.68,0,0,1-2.2,5.72A20.15,20.15,0,0,0,252.69,240.63Z"/>
        <path class="cls-2" d="M261.17,202.85a41.94,41.94,0,0,0-1.79-5.06c-.71-1.68-1,2.8-2.12,3.81s-2.44-.95-1.89.54c.21.55.34,1,.52,1.59a26.47,26.47,0,0,1,.86,3.35q.3,1.36.51,2.76l5.32-.29A48.84,48.84,0,0,0,261.17,202.85Z"/>
        <path class="cls-2" d="M261.49,227.64a43.42,43.42,0,0,1-5.05-1c0,.06-.05.13-.07.2-.18.6-.4,1.18-.62,1.75a19.59,19.59,0,0,1-2.1,4,44.75,44.75,0,0,1,3,4.44A26.19,26.19,0,0,0,261.49,227.64Z"/>
        <path class="cls-2" d="M257.76,215.13c0,.32,0,.64,0,1a38.72,38.72,0,0,1-.26,5.3,36.8,36.8,0,0,0,5.09,1.06c.15-1.11.26-2.23.33-3.37,0-.31,0-.63.05-1,0-.66,0-1.33,0-2,0-.44,0-.87,0-1.31Z"/>
        <path class="cls-5" d="M263,214.84a49.64,49.64,0,0,0-.44-5.29l-5.32.29c0,.12,0,.24.05.35.16,1.14.28,2.29.35,3.44,0,.22,0,.45,0,.67s0,.55.05.83Z"/>
        <path class="cls-5" d="M262.12,225.14c.18-.82.33-1.66.45-2.5,0-.06,0-.12,0-.18a36.8,36.8,0,0,1-5.09-1.06,31.15,31.15,0,0,1-1.08,5.22,43.42,43.42,0,0,0,5.05,1,1.41,1.41,0,0,1,.06-.22Q261.87,226.3,262.12,225.14Z"/>
        <path class="cls-5" d="M256.7,237a44.75,44.75,0,0,0-3-4.44,14.23,14.23,0,0,1-3.77,3.77,40.68,40.68,0,0,1,2.81,4.34A18.92,18.92,0,0,0,256.7,237Z"/>
        <path class="cls-2" d="M158.91,274.13c-1.09-.35-1.74,1.09-.66,1.44,10.68,3.4,20.15,6.4,30.95,9.4l.2-1.79C178.69,280.21,169.5,277.5,158.91,274.13Z"/>
        <path class="cls-2" d="M172,240c-.56-1-1.85.31-1.3,1.31,5.3,9.54,12.07,15.52,21.18,19.52l.21-1.86C183.57,255.1,177,249,172,240Z"/>
        <path class="cls-2" d="M173.55,233c-.4-1.06-1.11.9-.71,2a40.94,40.94,0,0,0,19.43,22.4l.23-2A43.6,43.6,0,0,1,173.55,233Z"/>
      </g>
      <g>
        <path class="cls-2" d="M198.07,254.58a32.76,32.76,0,0,0,36.77.15l8.58,51.52H189.7l8.37-51.67M195.94,249l-9.77,60.26H247l-10-60a29.75,29.75,0,0,1-41-.22Z"/>
        <path class="cls-2" d="M216.57,203.71a26.8,26.8,0,1,1-26.8,26.79,26.82,26.82,0,0,1,26.8-26.79m0,47.3a20.51,20.51,0,1,0-20.51-20.51A20.53,20.53,0,0,0,216.57,251m0-50.3a29.8,29.8,0,1,0,29.79,29.79,29.8,29.8,0,0,0-29.79-29.79Zm0,47.3a17.51,17.51,0,1,1,17.51-17.51A17.51,17.51,0,0,1,216.57,248Z"/>
      </g>
    </g>
  </g>
</svg>
