<svg id="Layer_1" data-name="Layer 1" xmlns="http://www.w3.org/2000/svg" xmlns:xlink="http://www.w3.org/1999/xlink" viewBox="0 0 380 380">
  <defs>
    <style>
      .cls-1, .cls-2, .cls-5, .cls-9 {
        fill: none;
      }

      .cls-2, .cls-5, .cls-9 {
        stroke: #fff;
        stroke-miterlimit: 10;
      }

      .cls-2 {
        stroke-width: 2px;
      }

      .cls-3 {
        fill: #fff;
      }

      .cls-4 {
        opacity: 0.7;
      }

      .cls-5 {
        stroke-width: 3px;
      }

      .cls-6 {
        clip-path: url(#clip-path);
      }

      .cls-7 {
        fill: #d4d4d4;
      }

      .cls-8 {
        clip-path: url(#clip-path-2);
      }

      .cls-9 {
        stroke-width: 4px;
      }
    </style>
    <clipPath id="clip-path">
      <circle class="cls-1" cx="326.83" cy="258.96" r="38.55"/>
    </clipPath>
    <clipPath id="clip-path-2">
      <path class="cls-1" d="M-9.55-10V390H390.5V-10ZM91.69,222.83s3.17-24.35,14.12-41.51c0,0-7.77-12,2.71-42.74,0,0,13.27-25.61,30.85-33.78,0,0,21.26-10.27,50.47-10.74,14.27-.23,41.2,7.24,54,18.41,9.81,8.53,23.44,26.28,26,45,1.2,8.76,4.33,18.08-4.34,35.13l23,33-23.83,10.17,6.93,38.65s-15.29,9.77-28.61,11.39c0,0-15,6.34-21.4,4.57L217,281.15,196.16,287l2.9,28.14-69.95,1,2.94-12.36s-11.73-2.77-19.25-10.34c0,0-14.87-15.48-14.82-34.53C98,259,88.86,242.85,91.69,222.83Z"/>
    </clipPath>
  </defs>
  <title>icon</title>
  <g>
    <circle class="cls-2" cx="241.95" cy="327.96" r="20.02"/>
    <path class="cls-3" d="M230.92,336.62a24.63,24.63,0,0,1-3.35,5.25c.21.23.44.45.67.66a25.46,25.46,0,0,0,3.53-5.51c4.25-9,3.94-18.6-.48-26-.27.16-.53.34-.79.52C234.75,318.67,235,327.91,230.92,336.62Z"/>
    <path class="cls-3" d="M256.78,341.42a24.55,24.55,0,0,1-3-4.8c-4-8.54-3.83-17.6.18-24.68-.25-.19-.51-.37-.77-.55-4.21,7.35-4.43,16.77-.26,25.63a25.93,25.93,0,0,0,3.18,5.08C256.35,341.88,256.56,341.65,256.78,341.42Z"/>
    <g>
      <path class="cls-3" d="M254.28,338.87a.38.38,0,0,1-.28-.12,3.2,3.2,0,0,0-2.85-1,.41.41,0,0,1-.2-.79,3.84,3.84,0,0,1,2.78.58,3,3,0,0,1,1-2.26.41.41,0,0,1,.55.6,2.35,2.35,0,0,0-.62,2.48.41.41,0,0,1-.39.55Z"/>
      <path class="cls-3" d="M252.13,334.39a.4.4,0,0,1-.33-.17,3.19,3.19,0,0,0-2.65-1.49.41.41,0,0,1-.06-.81,3.76,3.76,0,0,1,2.65,1,3,3,0,0,1,1.36-2.06.4.4,0,0,1,.56.11.42.42,0,0,1-.11.57,2.35,2.35,0,0,0-1,2.34.42.42,0,0,1-.24.45A.32.32,0,0,1,252.13,334.39Z"/>
      <path class="cls-3" d="M251.05,330a.39.39,0,0,1-.34-.21,3.2,3.2,0,0,0-2.45-1.81.39.39,0,1,1,0-.78,3.76,3.76,0,0,1,2.51,1.35,3,3,0,0,1,1.6-1.89.4.4,0,0,1,.52.18.38.38,0,0,1-.17.52,2.42,2.42,0,0,0-1.32,2.22.38.38,0,0,1-.28.4Z"/>
      <path class="cls-3" d="M250.62,325.56a.38.38,0,0,1-.36-.22,3.2,3.2,0,0,0-2.32-2,.39.39,0,0,1-.34-.43.4.4,0,0,1,.44-.34,3.72,3.72,0,0,1,2.4,1.53,3.05,3.05,0,0,1,1.74-1.78.39.39,0,0,1,.29.73,2.38,2.38,0,0,0-1.46,2.12.39.39,0,0,1-.31.38Z"/>
      <path class="cls-3" d="M250.58,321.3a.41.41,0,0,1-.37-.26,3.17,3.17,0,0,0-2.14-2.17.39.39,0,0,1,.16-.77,3.78,3.78,0,0,1,2.27,1.73,3,3,0,0,1,1.87-1.63.4.4,0,0,1,.49.26.38.38,0,0,1-.25.49,2.39,2.39,0,0,0-1.64,2,.39.39,0,0,1-.34.35Z"/>
      <path class="cls-3" d="M251.43,316.82h0a.37.37,0,0,1-.35-.34,3.22,3.22,0,0,0-1.63-2.57.39.39,0,0,1,.31-.72,3.81,3.81,0,0,1,1.85,2.17,3,3,0,0,1,2.18-1.18.39.39,0,0,1,.43.35.4.4,0,0,1-.36.43,2.37,2.37,0,0,0-2,1.59A.39.39,0,0,1,251.43,316.82Z"/>
    </g>
    <g>
      <path class="cls-3" d="M230.37,338.87a.4.4,0,0,0,.29-.12,3.2,3.2,0,0,1,2.85-1,.41.41,0,0,0,.49-.3.41.41,0,0,0-.3-.49,3.84,3.84,0,0,0-2.78.58,3,3,0,0,0-1-2.26.41.41,0,0,0-.56.6,2.38,2.38,0,0,1,.63,2.48.41.41,0,0,0,.16.49A.46.46,0,0,0,230.37,338.87Z"/>
      <path class="cls-3" d="M232.53,334.39a.42.42,0,0,0,.33-.17,3.18,3.18,0,0,1,2.64-1.49.41.41,0,0,0,.06-.81,3.74,3.74,0,0,0-2.64,1,3,3,0,0,0-1.36-2.06.41.41,0,1,0-.45.68,2.38,2.38,0,0,1,1,2.34.39.39,0,0,0,.24.45A.29.29,0,0,0,232.53,334.39Z"/>
      <path class="cls-3" d="M233.6,330a.39.39,0,0,0,.34-.21,3.21,3.21,0,0,1,2.45-1.81.39.39,0,0,0,0-.78,3.73,3.73,0,0,0-2.51,1.35,3,3,0,0,0-1.61-1.89.4.4,0,0,0-.52.18.38.38,0,0,0,.18.52,2.4,2.4,0,0,1,1.31,2.22.4.4,0,0,0,.28.4Z"/>
      <path class="cls-3" d="M234,325.56a.37.37,0,0,0,.35-.22,3.22,3.22,0,0,1,2.32-2,.38.38,0,0,0,.34-.43.4.4,0,0,0-.43-.34,3.73,3.73,0,0,0-2.41,1.53,3,3,0,0,0-1.73-1.78.39.39,0,0,0-.51.22.39.39,0,0,0,.21.51,2.38,2.38,0,0,1,1.47,2.12.39.39,0,0,0,.31.38Z"/>
      <path class="cls-3" d="M234.07,321.3a.39.39,0,0,0,.37-.26,3.19,3.19,0,0,1,2.14-2.17.41.41,0,0,0,.31-.47.39.39,0,0,0-.46-.3,3.73,3.73,0,0,0-2.27,1.73,3,3,0,0,0-1.88-1.63.4.4,0,0,0-.49.26.39.39,0,0,0,.26.49,2.39,2.39,0,0,1,1.63,2,.39.39,0,0,0,.34.35Z"/>
      <path class="cls-3" d="M233.23,316.82h0a.38.38,0,0,0,.36-.34,3.22,3.22,0,0,1,1.62-2.57.4.4,0,0,0,.21-.52.41.41,0,0,0-.52-.2,3.81,3.81,0,0,0-1.85,2.17,3,3,0,0,0-2.18-1.18.39.39,0,0,0-.07.78,2.4,2.4,0,0,1,2,1.59A.39.39,0,0,0,233.23,316.82Z"/>
    </g>
  </g>
  <g class="cls-4">
    <circle class="cls-2" cx="52.05" cy="277.58" r="19.57"/>
    <path class="cls-3" d="M52.76,258c-.57,0-1.14,0-1.71,0a18.32,18.32,0,0,1-2.79,11,15.46,15.46,0,0,1-13.08,7.19,19.29,19.29,0,0,1-2.64-.15c0,.57-.06,1.13-.06,1.7a20.82,20.82,0,0,0,2.73.15,17.11,17.11,0,0,0,14.48-8A20.14,20.14,0,0,0,52.76,258Z"/>
    <path class="cls-3" d="M51.48,293.79a15.43,15.43,0,0,1,8.12-12.51,18.32,18.32,0,0,1,11.92-1.86c.06-.57.08-1.14.09-1.71a20.06,20.06,0,0,0-12.82,2.08,17.07,17.07,0,0,0-9,13.85,21.07,21.07,0,0,0,0,3.37c.57.06,1.15.11,1.72.12A17.75,17.75,0,0,1,51.48,293.79Z"/>
  </g>
  <g>
    <circle class="cls-5" cx="326.83" cy="258.96" r="38.55"/>
    <g class="cls-6">
      <g>
        <path class="cls-3" d="M299.19,280.09c-4.18-3.36-8.58-12.5-8.77-12.89l.44-.21c.05.09,4.54,9.43,8.63,12.72Z"/>
        <path class="cls-3" d="M343,222.27v1.51a28,28,0,0,1,3.58,10.79l-12.95,5.23c-2.2-1.42-13.7-4.36-16-4.94l-1.83-9.81c1.42-.73,10.47-5.35,14.47-5.5,0,0-19.35-3.73-29,8.8,0,0,10.26-3,14.06-3.19l1.8,9.68c-.86.85-7.7,7.67-10.68,12.88-3,.08-9.67,2-12.36,2.8-1-2.87-.74-11.78-1.35-11.44-2.07,1.14-6.45,21.93-6,24.33s3.86,3.68,3.86,3.68c.21-4.55,3-14.39,3.47-16.07,2.57-.78,9.21-2.7,12.23-2.81a53.64,53.64,0,0,0,9.18,14.13c-.56,1.81-3.66,11.91-4.32,15.9a113.3,113.3,0,0,1-11.86,1.66c-.16,2.4,6,13.77,6,13.77s12.57,5.76,14.84,4.1c2-1.44,4.62-6.71,5.3-8.09,3.18-.89,12.56-3.59,16.1-5.46h0c.48.64,11.11,3,11.11,3,3.54-2.08,10.15-13,10.15-13,.29-2.76-2.7-10.34-3.4-12.06,1.54-4.56.82-14.19.63-16.36,1-.62,4.38-2.93,4.93-5.12C365.62,238.12,343,222.27,343,222.27Zm-1.46,61.39c-3.15,1.8-12.91,4.62-16.2,5.54-4.44-2.54-12.61-10-13.65-11,.66-3.91,3.67-13.75,4.26-15.68,1.74-.5,14.87-4.27,17-5.45l12.57,11.35C345.52,271.74,342,281.22,341.55,283.66Zm17.38-21.61c-3.39,2.41-11.36,5.42-13,6.05l-12.7-11.47c.13-2.28.79-14.25.82-16.43v0L346.92,235a66.9,66.9,0,0,1,12.63,10.73C359.7,247.46,360.48,257.54,358.93,262.05Z"/>
      </g>
    </g>
  </g>
  <g class="cls-4">
    <g>
      <path class="cls-2" d="M313,111.09c-15.93,12.12-39.39,14.16-47.27,3.81s-.23-33.52,15.69-45.64,40.43-13.15,48.3-2.8S329,99,313,111.09Z"/>
      <path class="cls-3" d="M310.3,85.79l1.19-1a7.11,7.11,0,0,0,2.16-7.65c-.85-2.22-3.07-4.83-5.52-5.29a10.28,10.28,0,0,0-5.39.69,40.85,40.85,0,0,0-9.6,5.5l-.22.15a101.86,101.86,0,0,0-10.64,8.36l-.92.82c-2,1.74-4,3.53-4.39,6.3a7.28,7.28,0,0,0,1.6,5.54,13.9,13.9,0,0,0,2.58,2.52c3.14,2.41,6.43.32,9.07-1.35l.29-.19c4.35-2.75,8.43-5.57,12.11-8.35l.56-.43C305.57,89.58,308,87.71,310.3,85.79Zm-32.88,7.92c.39-2.61,2.35-4.34,4.24-6,.32-.27.63-.55.93-.83a101,101,0,0,1,10.59-8.31l.22-.15c3-2.08,6.05-4.24,9.49-5.45a9.94,9.94,0,0,1,5.16-.67A6.93,6.93,0,0,1,312,75l.19.26c-2.71,1.73-27.61,17.75-32.86,24A7,7,0,0,1,277.42,93.71ZM302.91,91l-.57.42c-3.67,2.78-7.73,5.59-12.07,8.34L290,100c-2.65,1.69-5.66,3.6-8.56,1.38a14.79,14.79,0,0,1-1.84-1.67c5.05-6.13,30.38-22.44,32.81-24a8.28,8.28,0,0,1,.84,1.61,6.65,6.65,0,0,1-2,7.14c-.39.34-.78.68-1.19,1C307.75,87.35,305.29,89.22,302.91,91Z"/>
      <path class="cls-2" d="M311.45,59.38a46.73,46.73,0,0,0-10.73,1.14c12,12.21,21.25,26.62,26.09,34.9A48.28,48.28,0,0,0,331,86.14,108.07,108.07,0,0,0,311.45,59.38Z"/>
      <path class="cls-2" d="M268.45,84.38a49.14,49.14,0,0,0-4.14,9.54,107.63,107.63,0,0,0,21.09,27.57,47.78,47.78,0,0,0,10.07-1.73C283.2,107.74,273.66,93.17,268.45,84.38Z"/>
      <path class="cls-3" d="M280.79,98.11a1.14,1.14,0,0,1,.13-1.52C292.06,86.21,309.44,76,309.62,75.9a1.14,1.14,0,1,1,1.15,2c-.18.1-17.34,10.18-28.3,20.39a1.14,1.14,0,0,1-1.61-.06Z"/>
      <path class="cls-7" d="M281,98.29c10.68-9.92,27-19.77,30.31-21.76a.85.85,0,0,0-.09-.22l-.13-.18c-3.37,2-19.65,11.85-30.37,21.8a.67.67,0,0,0,.11.18l.07.09Z"/>
      <path class="cls-3" d="M310.22,80.88a.65.65,0,0,1-.11-.22c-.71-2.33-3.95-5.7-4-5.73a.68.68,0,0,1,0-1,.69.69,0,0,1,1,0c.14.15,3.5,3.65,4.31,6.29a.69.69,0,0,1-1.2.62Z"/>
      <path class="cls-3" d="M307.44,84.57l-.09-.15c-1.31-3.17-5.77-8.13-5.81-8.18a.68.68,0,1,1,1-.92c.19.21,4.66,5.19,6.07,8.57a.69.69,0,0,1-1.18.68Z"/>
      <path class="cls-3" d="M303,88.36a.64.64,0,0,1-.08-.14c-1.52-3.44-6.4-9-6.45-9a.68.68,0,0,1,1-.91c.21.24,5.07,5.73,6.68,9.37a.68.68,0,0,1-1.17.69Z"/>
      <path class="cls-3" d="M298.79,91.58a.47.47,0,0,1-.08-.14c-1.53-3.44-6.4-9-6.45-9a.68.68,0,1,1,1-.9c.21.23,5.07,5.72,6.68,9.36a.69.69,0,0,1-.35.9A.67.67,0,0,1,298.79,91.58Z"/>
      <path class="cls-3" d="M294.55,94.81a1,1,0,0,1-.08-.14c-1.52-3.45-6.4-9-6.45-9a.7.7,0,0,1,.06-1,.69.69,0,0,1,1,.06c.2.23,5.07,5.72,6.67,9.36a.68.68,0,0,1-.35.91A.7.7,0,0,1,294.55,94.81Z"/>
      <path class="cls-3" d="M290.32,98a.64.64,0,0,1-.08-.14c-1.52-3.45-6.4-9-6.45-9a.69.69,0,0,1,.06-1,.68.68,0,0,1,1,.06c.21.23,5.07,5.72,6.68,9.37a.68.68,0,0,1-.35.9A.7.7,0,0,1,290.32,98Z"/>
      <path class="cls-3" d="M285.49,100.46a.51.51,0,0,1-.09-.16c-1.15-2.93-5.27-7.45-5.31-7.5a.68.68,0,0,1,.05-1,.67.67,0,0,1,1,0c.18.19,4.34,4.75,5.57,7.92a.68.68,0,0,1-1.18.66Z"/>
    </g>
  </g>
  <g class="cls-4">
    <g class="cls-8">
      <g>
        <circle class="cls-5" cx="111.97" cy="96.77" r="52.1" transform="translate(-35.63 107.51) rotate(-45)"/>
        <path class="cls-3" d="M115.19,99.84c14.82,6.1,29.89,11.83,45.58,15.14q.57-1.52,1-3.06c-15.68-3.27-30.69-9-45.5-15.09q3.75-8.76,7.33-17.56a64.89,64.89,0,0,0,20.43,2.27c5.28-.23,11.44-1,16.49-3.5-.39-1-.79-2-1.23-3-4.73,2.39-10.76,3-15.69,3.26a57.66,57.66,0,0,1-18.79-2.1Q130.11,63.22,135,50c-.95-.46-1.91-.91-2.9-1.32l0,0q-5,13.38-10.3,26.62l-.6-.2a59.68,59.68,0,0,1-19.25-11c-4.71-4-9.26-9-11.48-14.84-1,.44-1.94.91-2.89,1.41C89.8,56.41,94,61.22,98.45,65.39a61.75,61.75,0,0,0,21.47,12.7l.65.22Q117,87,113.35,95.6,88.9,85.54,64.5,75.33c-.2.43-.4.86-.59,1.3s-.44,1.11-.65,1.67q24.41,10.14,48.82,20.25-3.85,8.94-7.88,17.79a66.57,66.57,0,0,0-41.11-1.56c.37,1,.78,2,1.21,3a63.64,63.64,0,0,1,38.53,1.56q-5.77,12.61-11.9,25.08c.3.14.59.28.9.41.69.29,1.38.55,2.08.81q6.12-12.48,11.92-25.13l.68.29a61.8,61.8,0,0,1,27.06,23.38c1-.45,2-.92,2.9-1.43a67.22,67.22,0,0,0-27.78-24.49c-.5-.24-1-.47-1.51-.69q4-8.85,7.87-17.78Z"/>
      </g>
    </g>
  </g>
  <g>
    <g>
      <path class="cls-9" d="M242.66,184.42H214.75s3.63,16.29,19.05,16.29C244,200.71,242.66,184.42,242.66,184.42Z"/>
      <path class="cls-9" d="M138.79,214.53a29.78,29.78,0,0,1,54.91,15c3.62.2,7.37.31,11.25.31,4.56,17.27,12,36.81,19.2,53.12,15.53-3.82,26.6-5,41.23-11.43-1.49-12.44-6.16-26.43-7.65-38.87,8.85-4.37,15.77-6,22.25-9.1-6.85-9.7-13.87-20.41-20.73-30.11,12.65-36.26-5.33-91.2-76.25-91.2C112.62,102.25,83.3,180.64,138.79,214.53Z"/>
    </g>
    <g>
      <g>
        <path class="cls-1" d="M136,290.43l.62-5.47.68-6,.21-1.79,3.2-28a29.22,29.22,0,0,1-3.37-5.19,29.8,29.8,0,1,1,49.93,5l.7,6.34.23,2,.18,1.63.21,1.86.56,5,1.19,10.79.73,6.54.2,1.79,3,27.28H133.54L134.82,301l.2-1.77Z"/>
        <path class="cls-1" d="M117.22,224.29c.23-.55.46-1.1.71-1.65.12.84.27,1.68.45,2.5A9.88,9.88,0,0,1,117.22,224.29Z"/>
        <path class="cls-1" d="M123.54,263.37c6.84-.13,14.26-6.33,10.32-13.44-1.88-3.39-6.19-5.29-9.64-3-3.63,2.46-4.1,7.78-3.56,11.72a24,24,0,0,0,.49,2.53,10.34,10.34,0,0,1-4-2.09c-9.48-8.08-4.83-21.83-1.18-31.58.2-.54.41-1.08.62-1.62a12.6,12.6,0,0,0,2.4,1.48,1.41,1.41,0,0,1,.06.22A26.19,26.19,0,0,0,123.8,237a18.92,18.92,0,0,0,4,3.67,20.15,20.15,0,0,0,9.56,3.37,29.22,29.22,0,0,0,3.37,5.19l-3.2,28C131,275.33,125.84,269.84,123.54,263.37Z"/>
        <path class="cls-1" d="M112.91,221.87a15.42,15.42,0,0,0,2.18,2.74c-1.21,3-2.25,6.11-3.19,9.08-3.08,9.72-3.85,24.77,8,29.1a8.47,8.47,0,0,0,1.8.45c2.4,7.41,8,13.79,15.62,15.76l-.68,6a50.8,50.8,0,0,1-6.24-2.95,51.57,51.57,0,0,1-4.51-2.83,55.68,55.68,0,0,1-5.71-4.59c-1.3-1.2-2.56-2.46-3.75-3.78a58.34,58.34,0,0,1-4.09-5.06c-1.06-1.45-2-2.95-2.94-4.48a59.42,59.42,0,0,1-4-8.06c-.68-1.64-1.28-3.32-1.81-5,0-.12-.06-.24-.1-.37a56.47,56.47,0,0,1,3-14.58A33,33,0,0,1,112.91,221.87Z"/>
        <path class="cls-1" d="M114.35,220.47a19.67,19.67,0,0,1,3.16-2.33c0,.32,0,.64,0,1-.61,1.23-1.2,2.48-1.74,3.74A11.67,11.67,0,0,1,114.35,220.47Z"/>
        <path class="cls-1" d="M25.5,116v250.5H291V116ZM95.57,226.53c.07-1.76.22-3.52.41-5.27a80.64,80.64,0,0,1,1.55-9c.4-1.74.85-3.48,1.37-5.2a86.86,86.86,0,0,1,3-8.6c.68-1.64,1.4-3.27,2.16-4.86s1.46-3,2.26-4.44q1.31-2.42,2.74-4.76t2.81-4.33c.73-1.08-.73,3,.21,3.86s4-.79,3.18.47c-.67,1-1.33,2.06-2,3.1l-.37.62c-.94,1.56-1.83,3.16-2.68,4.78-.51,1-1,2-1.49,3-.76,1.6-1.48,3.22-2.13,4.86a78.43,78.43,0,0,0-2.77,8q-.77,2.55-1.33,5.15a72,72,0,0,0-1.34,8.12c-.2,1.75-.32,3.51-.38,5.28a65.17,65.17,0,0,0,.17,7.39c.13,1.77.34,3.53.64,5.29.16,1,.35,2,.56,2.95a55.53,55.53,0,0,1,3-11.35A33.47,33.47,0,0,1,112,220.26c-3.07-6.65-.94-15,2.78-22.38.5-1,1-1.94,1.56-2.89.4-.7.82-1.39,1.24-2.07.63-1,1.73.39,1.08,1.46-.39.64-.77,1.28-1.13,1.94-.53,1-1,1.93-1.5,2.93a40.59,40.59,0,0,0-2.63,7.17,22.65,22.65,0,0,0,.21,12.32c.5-.42,1-.82,1.53-1.2a18.46,18.46,0,0,1,2.3-1.39c0-.44,0-.87,0-1.31a49.64,49.64,0,0,1,.44-5.29,48.84,48.84,0,0,1,1.41-6.7,41.94,41.94,0,0,1,1.79-5.06c.71-1.68,1,1.91,2.12,2.92s2.75-1,2.2.54c-.21.54-.4,1.1-.58,1.67a40.84,40.84,0,0,0-1.11,4.16q-.3,1.36-.51,2.76c0,.12,0,.24,0,.35a33.5,33.5,0,0,1,3.48-3.66c.51-.45,1-.88,1.58-1.3.92-.71,1.74.88,1.09,1.38s-1.1.88-1.62,1.36a32.3,32.3,0,0,0-4.88,5.66c0,.22,0,.45,0,.67a10.13,10.13,0,0,1,7.58,1.32c4,2.72,4,7.86.31,10.8a10.17,10.17,0,0,1-5.93,2.15,19.59,19.59,0,0,0,2.1,4,14.23,14.23,0,0,0,3.77,3.77,13.69,13.69,0,0,0,4.55,2A29.8,29.8,0,1,1,187.3,249l.7,6.34A43.6,43.6,0,0,0,207,233c.4-1.06,1.11.9.71,2a40.94,40.94,0,0,1-19.43,22.4l.18,1.63c8.52-3.85,15.06-9.92,20.09-19a.89.89,0,0,1,1.53.89c-5.29,9.54-12.3,15.94-21.41,19.94l.56,5c1.13-.38,2.26-.78,3.38-1.23l-.26-.84c-.8-2.74,3.4-4.13,4.21-1.39.05.14.09.29.13.43.76-.37,1.51-.76,2.25-1.16l-.13-.24c-1.37-2.5,2.46-4.74,3.82-2.23l.14.24c1-.63,1.94-1.29,2.89-2-.13-.26-.28-.51-.41-.77-1.28-2.55,2.64-4.55,3.94-2,1-.89,2-1.79,3-2.75.35-.34.69-.69,1-1,.82-.85.2,5.43.2,5.43s4.73,4.48,4.18,5c-.77.71-1.56,1.39-2.37,2.06-.26.22-.53.42-.8.64l0,0c1.38,2.19-1.75,4-3.46,2.56-1,.74-2.11,1.46-3.19,2.14,1.24,2.44-2.39,4.57-3.79,2.25-1.41.77-2.86,1.49-4.32,2.16a2.26,2.26,0,0,1-3.93,1.69q-2.64,1-5.35,1.83l.73,6.54q16.07-4.46,32-9.51c1.09-.35,1.56,1.36.47,1.7q-16,5.1-32.22,9.6l3,27.28H133.54L134.82,301c-19.91-4.89-31.08-23.29-33-42.76-.56-1.2-1.1-2.41-1.58-3.64-.67-1.64-1.26-3.33-1.78-5-.29-.91-.54-1.83-.78-2.76a67.58,67.58,0,0,1-1.43-7.07c-.27-1.82-.45-3.64-.57-5.45A72.53,72.53,0,0,1,95.57,226.53Z"/>
        <path class="cls-1" d="M124.54,249c5.27-3.94,10.38,3.1,7.7,7.94a9.36,9.36,0,0,1-9.25,4.61,21.88,21.88,0,0,1-.76-5.15C122.18,254.27,122.61,250.45,124.54,249Z"/>
        <path class="cls-1" d="M122.72,216.1a8.54,8.54,0,0,1,6.23.69c4.57,2.74,2.63,7.61-1.25,9.28a9.25,9.25,0,0,1-3.57.75c0-.07,0-.14-.07-.2A31.15,31.15,0,0,1,123,221.4,38.72,38.72,0,0,1,122.72,216.1Z"/>
        <path class="cls-1" d="M112.92,274.84q1.8,2,3.77,3.76a60.1,60.1,0,0,0,6.76,5.37c1.46,1,3,1.93,4.53,2.79a54.16,54.16,0,0,0,8,3.67l-1,8.84c-17.38-4.42-27.64-19.46-30.72-36.22l.41.72c.89,1.53,1.86,3,2.89,4.47A65.05,65.05,0,0,0,112.92,274.84Z"/>
        <path class="cls-3" d="M202.72,259.43c1-.63,1.94-1.29,2.89-2,1.5,2.92,3.1,5.79,4.85,8.57a2.38,2.38,0,0,0,.49.55c-1,.74-2.11,1.46-3.19,2.14a.26.26,0,0,0,0-.08Z"/>
        <path class="cls-3" d="M192.56,264.62q1.4,4.74,2.8,9.47a2.11,2.11,0,0,0,.36.72q-2.64,1-5.35,1.83l-1.19-10.79C190.31,265.47,191.44,265.07,192.56,264.62Z"/>
        <path class="cls-3" d="M209.14,254.65c1-.89,2-1.79,3-2.75.35-.34.69-.69,1-1,.82-.85.2,5.43.2,5.43s4.3,4.87,3.75,5.37c-.78.71-1.13,1-1.94,1.67-.26.22-.53.42-.8.64q-2.83-4.53-5.23-9.3Z"/>
        <path class="cls-3" d="M196.64,262.82c.76-.37,1.51-.76,2.25-1.16l5,9.21.06.09c-1.41.77-2.86,1.49-4.32,2.16a3.28,3.28,0,0,0-.08-.41Q198.1,267.76,196.64,262.82Z"/>
        <path class="cls-7" d="M210.46,266c-1.75-2.78-3.35-5.65-4.85-8.57-.13-.26-.28-.51-.41-.77-1.28-2.55,2.64-4.55,3.94-2v0q2.4,4.77,5.23,9.3l0,0c1.38,2.19-1.75,4-3.46,2.56A2.38,2.38,0,0,1,210.46,266Z"/>
        <path class="cls-7" d="M198.89,261.66l-.13-.24c-1.37-2.5,2.46-4.74,3.82-2.23l.14.24,5,9.2a.26.26,0,0,1,0,.08c1.24,2.44-2.39,4.57-3.79,2.25l-.06-.09Z"/>
        <path class="cls-7" d="M192.56,264.62l-.26-.84c-.8-2.74,3.4-4.13,4.21-1.39.05.14.09.29.13.43q1.47,4.94,2.93,9.89a3.28,3.28,0,0,1,.08.41,2.26,2.26,0,0,1-3.93,1.69,2.11,2.11,0,0,1-.36-.72Q194,269.37,192.56,264.62Z"/>
        <path class="cls-3" d="M126.67,206.53c.51-.45,1-.88,1.58-1.3.92-.71,1.74.88,1.09,1.38s-1.1.88-1.62,1.36a32.3,32.3,0,0,0-4.88,5.66c.07-1.15.19-2.3.35-3.44A33.5,33.5,0,0,1,126.67,206.53Z"/>
        <path class="cls-3" d="M117.47,216.15a18.46,18.46,0,0,0-2.3,1.39c-.53.38-1,.78-1.53,1.2a22.65,22.65,0,0,1-.21-12.32,40.59,40.59,0,0,1,2.63-7.17c.46-1,1-2,1.5-2.93.36-.66.74-1.3,1.13-1.94.65-1.07-.45-2.47-1.08-1.46-.42.68-.84,1.37-1.24,2.07-.54.95-1.06,1.91-1.56,2.89-3.72,7.42-5.85,15.73-2.78,22.38a33.47,33.47,0,0,0-6.87,11.34,55.53,55.53,0,0,0-3,11.35c.17.83.36,1.66.58,2.48s.44,1.6.68,2.39a56.47,56.47,0,0,1,3-14.58,33,33,0,0,1,6.47-11.37,15.42,15.42,0,0,0,2.18,2.74c-1.21,3-2.25,6.11-3.19,9.08-3.08,9.72-3.85,24.77,8,29.1a8.47,8.47,0,0,0,1.8.45c2.4,7.41,8,13.79,15.62,15.76l.21-1.79c-6.58-1.88-11.7-7.37-14-13.84,6.84-.13,14.26-6.33,10.32-13.44-1.88-3.39-6.19-5.29-9.64-3-3.63,2.46-4.1,7.78-3.56,11.72a24,24,0,0,0,.49,2.53,10.34,10.34,0,0,1-4-2.09c-9.48-8.08-4.83-21.83-1.18-31.58.2-.54.41-1.08.62-1.62a12.6,12.6,0,0,0,2.4,1.48q-.32-1.12-.57-2.28a9.88,9.88,0,0,1-1.16-.85c.23-.55.46-1.1.71-1.65,0-.06,0-.12,0-.18-.15-1.11-.26-2.23-.33-3.37-.61,1.23-1.2,2.48-1.74,3.74a11.67,11.67,0,0,1-1.47-2.36,19.67,19.67,0,0,1,3.16-2.33C117.48,217.48,117.47,216.81,117.47,216.15Zm4.76,40.26c0-2.14.38-6,2.31-7.4,5.27-3.94,10.38,3.1,7.7,7.94a9.36,9.36,0,0,1-9.25,4.61A21.88,21.88,0,0,1,122.23,256.41Z"/>
        <path class="cls-3" d="M135,299.27l-.2,1.77c-19.91-4.89-31.08-23.29-33-42.76q1.15,2.43,2.5,4.77C107.38,279.81,117.64,294.85,135,299.27Z"/>
        <path class="cls-3" d="M127.7,226.07c3.88-1.67,5.82-6.54,1.25-9.28a8.54,8.54,0,0,0-6.23-.69c0-.33,0-.65,0-1s0-.55.05-.83a10.13,10.13,0,0,1,7.58,1.32c4,2.72,4,7.86.31,10.8a10.17,10.17,0,0,1-5.93,2.15c-.22-.57-.44-1.15-.62-1.75A9.25,9.25,0,0,0,127.7,226.07Z"/>
        <path class="cls-3" d="M101.94,198.48l4.72,2.31a78.43,78.43,0,0,0-2.77,8,28.19,28.19,0,0,1-5-1.69A86.86,86.86,0,0,1,101.94,198.48Z"/>
        <path class="cls-3" d="M130.41,282a50.8,50.8,0,0,0,6.24,2.95l-.62,5.47a54.16,54.16,0,0,1-8-3.67C128.71,285.14,129.53,283.56,130.41,282Z"/>
        <path class="cls-3" d="M100.84,227.32a65.17,65.17,0,0,0,.17,7.39,28.22,28.22,0,0,1-5.35-.38,72.53,72.53,0,0,1-.09-7.8Z"/>
        <path class="cls-3" d="M106.36,189.18q1.94,1.89,3.92,3.74c-.51,1-1,2-1.49,3l-4.69-2.31C104.82,192.12,105.56,190.64,106.36,189.18Z"/>
        <path class="cls-3" d="M116.69,278.6l3.5-4a55.68,55.68,0,0,0,5.71,4.59q-1.31,2.34-2.45,4.79A60.1,60.1,0,0,1,116.69,278.6Z"/>
        <path class="cls-3" d="M111.91,180.09c.73-1.08-.73,3,.21,3.86s3.34.23,2.51,1.49c-.68,1-.66,1-1.3,2.08l-.37.62q-2-1.83-3.86-3.72Q110.45,182.21,111.91,180.09Z"/>
        <path class="cls-3" d="M101.65,240c.16,1,.35,2,.56,2.95s.36,1.66.58,2.48.44,1.6.68,2.39c0,.13.07.25.1.37l-5.13,1.42c-.29-.91-.54-1.83-.78-2.76a67.58,67.58,0,0,1-1.43-7.07A30.7,30.7,0,0,0,101.65,240Z"/>
        <path class="cls-3" d="M107.6,268.24c1.56-.87,3.14-1.71,4.75-2.49a58.34,58.34,0,0,0,4.09,5.06c-1.18,1.34-2.35,2.69-3.52,4A65.05,65.05,0,0,1,107.6,268.24Z"/>
        <path class="cls-3" d="M97.53,212.28a32.84,32.84,0,0,0,5,1.64,72,72,0,0,0-1.34,8.12c-1.75-.27-3.49-.53-5.24-.78A80.64,80.64,0,0,1,97.53,212.28Z"/>
        <path class="cls-3" d="M105.38,253.21a59.42,59.42,0,0,0,4,8.06q-2.39,1.19-4.7,2.5l-.41-.72q-1.35-2.34-2.5-4.77c-.56-1.2-1.1-2.41-1.58-3.64Z"/>
        <path class="cls-7" d="M123.45,284q1.14-2.45,2.45-4.79a51.57,51.57,0,0,0,4.51,2.83c-.88,1.55-1.7,3.13-2.43,4.75C126.43,285.9,124.91,285,123.45,284Z"/>
        <path class="cls-7" d="M112.92,274.84c1.17-1.34,2.34-2.69,3.52-4,1.19,1.32,2.45,2.58,3.75,3.78l-3.5,4Q114.73,276.8,112.92,274.84Z"/>
        <path class="cls-7" d="M107.6,268.24c-1-1.44-2-2.94-2.89-4.47q2.31-1.32,4.7-2.5c.91,1.53,1.88,3,2.94,4.48C110.74,266.53,109.16,267.37,107.6,268.24Z"/>
        <path class="cls-7" d="M103.57,248.19c.53,1.7,1.13,3.38,1.81,5l-5.16,1.43c-.67-1.64-1.26-3.33-1.78-5Z"/>
        <path class="cls-7" d="M101,234.71c.13,1.77.34,3.53.64,5.29a30.7,30.7,0,0,1-5.42-.22c-.27-1.82-.45-3.64-.57-5.45A28.22,28.22,0,0,0,101,234.71Z"/>
        <path class="cls-7" d="M96,221.26c1.75.25,3.49.51,5.24.78-.2,1.75-.32,3.51-.38,5.28l-5.27-.79C95.64,224.77,95.79,223,96,221.26Z"/>
        <path class="cls-7" d="M98.9,207.08a28.19,28.19,0,0,0,5,1.69q-.77,2.55-1.33,5.15a32.84,32.84,0,0,1-5-1.64C97.93,210.54,98.38,208.8,98.9,207.08Z"/>
        <path class="cls-7" d="M104.1,193.62l4.69,2.31c-.76,1.6-1.48,3.22-2.13,4.86l-4.72-2.31C102.62,196.84,103.34,195.21,104.1,193.62Z"/>
        <path class="cls-7" d="M109.1,184.42q1.91,1.89,3.86,3.72c-.94,1.56-1.83,3.16-2.68,4.78q-2-1.84-3.92-3.74Q107.67,186.77,109.1,184.42Z"/>
        <path class="cls-3" d="M127.81,240.63a40.68,40.68,0,0,1,2.81-4.34,13.69,13.69,0,0,0,4.55,2,29.68,29.68,0,0,0,2.2,5.72A20.15,20.15,0,0,1,127.81,240.63Z"/>
        <path class="cls-3" d="M119.33,202.85a41.94,41.94,0,0,1,1.79-5.06c.71-1.68,1,2.8,2.12,3.81s2.44-.95,1.89.54c-.21.55-.34,1-.52,1.59a26.47,26.47,0,0,0-.86,3.35q-.3,1.36-.51,2.76l-5.32-.29A48.84,48.84,0,0,1,119.33,202.85Z"/>
        <path class="cls-3" d="M119,227.64a43.42,43.42,0,0,0,5-1c0,.06,0,.13.07.2.18.6.4,1.18.62,1.75a19.59,19.59,0,0,0,2.1,4,44.75,44.75,0,0,0-3,4.44A26.19,26.19,0,0,1,119,227.64Z"/>
        <path class="cls-3" d="M122.74,215.13c0,.32,0,.64,0,1a38.72,38.72,0,0,0,.26,5.3,36.8,36.8,0,0,1-5.09,1.06c-.15-1.11-.26-2.23-.33-3.37,0-.31,0-.63,0-1,0-.66,0-1.33,0-2,0-.44,0-.87,0-1.31Z"/>
        <path class="cls-7" d="M117.48,214.84a49.64,49.64,0,0,1,.44-5.29l5.32.29c0,.12,0,.24,0,.35-.16,1.14-.28,2.29-.35,3.44,0,.22,0,.45,0,.67s0,.55-.05.83Z"/>
        <path class="cls-7" d="M118.38,225.14c-.18-.82-.33-1.66-.45-2.5,0-.06,0-.12,0-.18A36.8,36.8,0,0,0,123,221.4a31.15,31.15,0,0,0,1.08,5.22,43.42,43.42,0,0,1-5,1,1.41,1.41,0,0,0-.06-.22Q118.64,226.3,118.38,225.14Z"/>
        <path class="cls-7" d="M123.8,237a44.75,44.75,0,0,1,3-4.44,14.23,14.23,0,0,0,3.77,3.77,40.68,40.68,0,0,0-2.81,4.34A18.92,18.92,0,0,1,123.8,237Z"/>
        <path class="cls-3" d="M221.59,274.13c1.09-.35,1.74,1.09.66,1.44C211.57,279,202.1,282,191.3,285l-.2-1.79C201.81,280.21,211,277.5,221.59,274.13Z"/>
        <path class="cls-3" d="M208.5,240c.56-1,1.85.31,1.3,1.31-5.3,9.54-12.07,15.52-21.18,19.52l-.21-1.86C196.93,255.1,203.47,249,208.5,240Z"/>
        <path class="cls-3" d="M207,233c.4-1.06,1.11.9.71,2a40.94,40.94,0,0,1-19.43,22.4l-.23-2A43.6,43.6,0,0,0,207,233Z"/>
      </g>
      <g>
        <path class="cls-3" d="M182.43,254.58l8.37,51.67H137.08l8.58-51.52a32.76,32.76,0,0,0,36.77-.15m2.13-5.59a29.75,29.75,0,0,1-41,.22l-10,60h60.79L184.56,249Z"/>
        <path class="cls-3" d="M163.93,203.71a26.8,26.8,0,1,1-26.79,26.79,26.83,26.83,0,0,1,26.79-26.79m0,47.3a20.51,20.51,0,1,0-20.51-20.51A20.53,20.53,0,0,0,163.93,251m0-50.3a29.8,29.8,0,1,0,29.8,29.79,29.79,29.79,0,0,0-29.8-29.79Zm0,47.3a17.51,17.51,0,1,1,17.51-17.51A17.51,17.51,0,0,1,163.93,248Z"/>
      </g>
    </g>
  </g>
</svg>
