<?xml version="1.0" encoding="utf-8"?>
<!-- Generator: Adobe Illustrator 22.1.0, SVG Export Plug-In . SVG Version: 6.00 Build 0)  -->
<svg version="1.1" id="圖層_1" xmlns="http://www.w3.org/2000/svg" xmlns:xlink="http://www.w3.org/1999/xlink" x="0px" y="0px"
	 viewBox="0 0 512 512" style="enable-background:new 0 0 512 512;" xml:space="preserve">
<style type="text/css">
	.st0{fill:#333333;}
</style>
<path class="st0" d="M486.4,136.5H307.2V42.7c0-23.6-19.1-42.6-42.7-42.7H42.7C19.1,0,0,19.1,0,42.7v426.7
	C0,492.9,19.1,512,42.7,512h443.7c14.1,0,25.6-11.5,25.6-25.6V162.1C512,148,500.5,136.5,486.4,136.5z M264.5,136.5V128
	c0-9.4-7.6-17.1-17.1-17.1H59.7c-9.4,0-17.1,7.6-17.1,17.1v85.3c0,9.4,7.6,17.1,17.1,17.1h128v34.1h-17.1c-9.4,0-17.1,7.6-17.1,17.1
	v85.3c0,9.4,7.6,17.1,17.1,17.1h17.1v42.7H17.1V85.3h273.1v51.2H264.5z M213.3,136.5c-12.5,0-23.2,9.1-25.2,21.5L159,185.3
	l-29.2-29.2c-1.6-1.6-3.8-2.5-6-2.5c-2.3,0-4.4,0.9-6,2.5l-57.2,57.2h-0.8V128h187.7v8.5H213.3z M152.4,202.8
	c0.1,0.1,0.1,0.1,0.1,0.2c0.1,0.1,0.2,0.1,0.3,0.2l10.1,10.1H84.6l39.1-39.1L152.4,202.8z M171,197.4l16.7-15.6v31.6H187L171,197.4z
	 M187.7,366.9h-17.1v-85.3h17.1V366.9z M42.7,17.1h221.9c14.1,0,25.6,11.5,25.6,25.6v25.6H17.1V42.7C17.1,28.5,28.5,17.1,42.7,17.1z
	 M17.1,469.3v-25.6h170.7v17.1H111c-4.7,0-8.5,3.8-8.5,8.5s3.8,8.5,8.5,8.5h76.8v8.5c0,2.9,0.6,5.8,1.6,8.5H42.7
	c-6.8,0-13.3-2.7-18.1-7.5S17.1,476.1,17.1,469.3z M494.9,486.4c0,4.7-3.8,8.5-8.5,8.5H213.3c-4.7,0-8.5-3.8-8.5-8.5V162.1
	c0-4.7,3.8-8.5,8.5-8.5h273.1c4.7,0,8.5,3.8,8.5,8.5L494.9,486.4L494.9,486.4z"/>
<path class="st0" d="M238.9,264.5c4.7,0,8.5-3.8,8.5-8.5v-42.7h42.7c4.7,0,8.5-3.8,8.5-8.5s-3.8-8.5-8.5-8.5h-42.7
	c-9.4,0-17.1,7.6-17.1,17.1V256C230.4,260.7,234.2,264.5,238.9,264.5z"/>
<path class="st0" d="M317.2,200.1l-28.4,42.5l-9.7-9.7c-3.4-3.2-8.7-3.2-12,0.1s-3.3,8.6-0.1,12l17.1,17.1c1.6,1.6,3.8,2.5,6,2.5
	h0.9c2.5-0.3,4.8-1.6,6.3-3.8l34.1-51.2c1.7-2.5,1.9-5.8,0.6-8.5s-4.1-4.5-7.1-4.7C321.8,196.1,318.9,197.6,317.2,200.1L317.2,200.1
	z"/>
<path class="st0" d="M238.9,358.4c4.7,0,8.5-3.8,8.5-8.5v-42.7h42.7c4.7,0,8.5-3.8,8.5-8.5s-3.8-8.5-8.5-8.5h-42.7
	c-9.4,0-17.1,7.6-17.1,17.1V350C230.4,354.6,234.2,358.4,238.9,358.4z"/>
<path class="st0" d="M317.2,293.9l-28.4,42.5l-9.7-9.7c-3.4-3.2-8.7-3.2-12,0.1c-3.3,3.3-3.3,8.6-0.1,12l17.1,17.1
	c1.6,1.6,3.8,2.5,6,2.5c0.3,0,0.6,0,0.9,0c2.5-0.2,4.8-1.6,6.3-3.8l34.1-51.2c1.7-2.5,1.9-5.8,0.6-8.5s-4.1-4.5-7.1-4.7
	C321.8,290,318.9,291.4,317.2,293.9L317.2,293.9z"/>
<path class="st0" d="M298.7,392.5c0-4.7-3.8-8.5-8.5-8.5h-42.7c-9.4,0-17.1,7.6-17.1,17.1v42.7c0,4.7,3.8,8.5,8.5,8.5
	s8.5-3.8,8.5-8.5v-42.7h42.7C294.8,401.1,298.7,397.2,298.7,392.5z"/>
<path class="st0" d="M317.2,387.8l-28.4,42.5l-9.7-9.7c-3.4-3.2-8.7-3.2-12,0.1c-3.3,3.3-3.3,8.6-0.1,12l17.1,17.1
	c1.6,1.6,3.8,2.5,6,2.5c0.3,0,0.6,0,0.9,0c2.5-0.2,4.8-1.6,6.3-3.8l34.1-51.2c1.7-2.5,1.9-5.8,0.6-8.5s-4.1-4.5-7.1-4.7
	C321.8,383.8,318.9,385.3,317.2,387.8L317.2,387.8z"/>
<path class="st0" d="M366.9,221.9h59.7c4.7,0,8.5-3.8,8.5-8.5s-3.8-8.5-8.5-8.5h-59.7c-4.7,0-8.5,3.8-8.5,8.5
	C358.4,218,362.2,221.9,366.9,221.9z"/>
<path class="st0" d="M469.3,204.8h-8.5c-4.7,0-8.5,3.8-8.5,8.5s3.8,8.5,8.5,8.5h8.5c4.7,0,8.5-3.8,8.5-8.5
	C477.9,208.6,474,204.8,469.3,204.8z"/>
<path class="st0" d="M401.1,247.5c0,4.7,3.8,8.5,8.5,8.5h34.1c4.7,0,8.5-3.8,8.5-8.5s-3.8-8.5-8.5-8.5h-34.1
	C404.9,238.9,401.1,242.8,401.1,247.5z"/>
<path class="st0" d="M366.9,256h8.5c4.7,0,8.5-3.8,8.5-8.5s-3.8-8.5-8.5-8.5h-8.5c-4.7,0-8.5,3.8-8.5,8.5S362.2,256,366.9,256z"/>
<path class="st0" d="M366.9,315.7h59.7c4.7,0,8.5-3.8,8.5-8.5s-3.8-8.5-8.5-8.5h-59.7c-4.7,0-8.5,3.8-8.5,8.5
	C358.4,311.9,362.2,315.7,366.9,315.7z"/>
<path class="st0" d="M469.3,298.7h-8.5c-4.7,0-8.5,3.8-8.5,8.5s3.8,8.5,8.5,8.5h8.5c4.7,0,8.5-3.8,8.5-8.5
	C477.9,302.5,474,298.7,469.3,298.7z"/>
<path class="st0" d="M443.7,332.8h-34.1c-4.7,0-8.5,3.8-8.5,8.5s3.8,8.5,8.5,8.5h34.1c4.7,0,8.5-3.8,8.5-8.5
	C452.3,336.6,448.4,332.8,443.7,332.8z"/>
<path class="st0" d="M366.9,349.9h8.5c4.7,0,8.5-3.8,8.5-8.5s-3.8-8.5-8.5-8.5h-8.5c-4.7,0-8.5,3.8-8.5,8.5
	C358.4,346,362.2,349.9,366.9,349.9z"/>
<path class="st0" d="M366.9,409.6h59.7c4.7,0,8.5-3.8,8.5-8.5s-3.8-8.5-8.5-8.5h-59.7c-4.7,0-8.5,3.8-8.5,8.5
	C358.4,405.8,362.2,409.6,366.9,409.6z"/>
<path class="st0" d="M469.3,392.5h-8.5c-4.7,0-8.5,3.8-8.5,8.5s3.8,8.5,8.5,8.5h8.5c4.7,0,8.5-3.8,8.5-8.5
	C477.9,396.4,474,392.5,469.3,392.5z"/>
<path class="st0" d="M443.7,426.7h-34.1c-4.7,0-8.5,3.8-8.5,8.5s3.8,8.5,8.5,8.5h34.1c4.7,0,8.5-3.8,8.5-8.5
	C452.3,430.5,448.4,426.7,443.7,426.7z"/>
<path class="st0" d="M375.5,426.7H367c-4.7,0-8.5,3.8-8.5,8.5s3.8,8.5,8.5,8.5h8.5c4.7,0,8.5-3.8,8.5-8.5S380.2,426.7,375.5,426.7z"
	/>
<path class="st0" d="M119.5,51.2h8.5c4.7,0,8.5-3.8,8.5-8.5s-3.8-8.5-8.5-8.5h-8.5c-4.7,0-8.5,3.8-8.5,8.5
	C110.9,47.4,114.8,51.2,119.5,51.2z"/>
<path class="st0" d="M162.1,51.2h25.6c4.7,0,8.5-3.8,8.5-8.5s-3.8-8.5-8.5-8.5h-25.6c-4.7,0-8.5,3.8-8.5,8.5S157.4,51.2,162.1,51.2z
	"/>
<path class="st0" d="M85.3,315.7H128c4.7,0,8.5-3.8,8.5-8.5s-3.8-8.5-8.5-8.5H85.3c-4.7,0-8.5,3.8-8.5,8.5
	C76.8,311.9,80.6,315.7,85.3,315.7z"/>
<path class="st0" d="M55.9,300.1c-0.4-0.3-0.9-0.6-1.5-0.8c-0.5-0.3-1.1-0.4-1.6-0.5c-1.1-0.3-2.2-0.3-3.2,0
	c-0.6,0.1-1.1,0.3-1.6,0.5s-1.1,0.4-1.5,0.8l-1.3,1c-1.6,1.6-2.4,3.8-2.5,6.1c0,1.1,0.2,2.2,0.7,3.2c0.4,1,1,2,1.8,2.8l1.3,1
	c0.5,0.3,1,0.6,1.5,0.8c0.5,0.3,1.1,0.4,1.6,0.5s1.1,0.2,1.6,0.2s1.1-0.1,1.6-0.2c0.6-0.1,1.1-0.3,1.6-0.5s1-0.4,1.5-0.8
	c0.5-0.3,0.9-0.7,1.4-1c0.8-0.8,1.4-1.8,1.8-2.8c0.4-1,0.7-2.1,0.7-3.2c0-2.3-0.9-4.4-2.5-6.1C56.8,300.8,56.4,300.5,55.9,300.1z"/>
<path class="st0" d="M85.3,281.6H128c4.7,0,8.5-3.8,8.5-8.5s-3.8-8.5-8.5-8.5H85.3c-4.7,0-8.5,3.8-8.5,8.5
	C76.8,277.8,80.6,281.6,85.3,281.6z"/>
<path class="st0" d="M43.3,276.3c0.4,1,1,2,1.8,2.8l1.3,1c0.5,0.3,1,0.6,1.5,0.8c0.5,0.3,1.1,0.4,1.6,0.5s1.1,0.1,1.6,0.1
	s1.1-0.1,1.6-0.2c0.6-0.1,1.1-0.3,1.6-0.5s1-0.4,1.5-0.8c0.5-0.3,0.9-0.7,1.4-1c0.8-0.8,1.4-1.8,1.8-2.8c0.4-1,0.7-2.1,0.7-3.2
	c0-2.3-0.9-4.4-2.5-6.1c-0.4-0.3-0.9-0.7-1.4-1c-0.4-0.3-0.9-0.6-1.5-0.8c-0.5-0.3-1.1-0.4-1.6-0.5c-1.1-0.3-2.2-0.3-3.2,0
	c-0.6,0.1-1.1,0.2-1.6,0.5c-0.5,0.2-1.1,0.5-1.5,0.8l-1.3,1c-1.6,1.6-2.4,3.8-2.5,6.1C42.6,274.2,42.9,275.3,43.3,276.3z"/>
<path class="st0" d="M85.3,349.9H128c4.7,0,8.5-3.8,8.5-8.5s-3.8-8.5-8.5-8.5H85.3c-4.7,0-8.5,3.8-8.5,8.5
	C76.8,346,80.6,349.9,85.3,349.9z"/>
<path class="st0" d="M55.9,334.3c-0.4-0.3-0.9-0.6-1.5-0.8c-0.5-0.3-1.1-0.4-1.6-0.5c-1.1-0.3-2.2-0.3-3.2,0
	c-0.6,0.1-1.1,0.2-1.6,0.5c-0.5,0.2-1.1,0.5-1.5,0.8l-1.3,1c-1.6,1.6-2.4,3.8-2.5,6c0,1.1,0.2,2.2,0.7,3.2c0.4,1,1,2,1.8,2.8l1.3,1
	c0.5,0.3,1,0.6,1.5,0.8c0.5,0.3,1.1,0.4,1.6,0.5s1.1,0.2,1.6,0.2s1.1-0.1,1.6-0.2c0.6-0.1,1.1-0.3,1.6-0.5s1-0.4,1.5-0.8
	c0.5-0.3,0.9-0.7,1.4-1c0.8-0.8,1.4-1.8,1.8-2.8c0.4-1,0.7-2.1,0.7-3.2c0-2.3-0.9-4.4-2.5-6.1C56.8,335,56.4,334.6,55.9,334.3z"/>
<path class="st0" d="M85.3,384H128c4.7,0,8.5-3.8,8.5-8.5s-3.8-8.5-8.5-8.5H85.3c-4.7,0-8.5,3.8-8.5,8.5S80.6,384,85.3,384z"/>
<path class="st0" d="M55.9,368.4c-0.4-0.3-0.9-0.6-1.5-0.8c-0.5-0.3-1.1-0.4-1.6-0.5c-1.1-0.3-2.2-0.3-3.2,0
	c-0.6,0.1-1.1,0.2-1.6,0.5c-0.5,0.2-1.1,0.4-1.5,0.8l-1.3,1c-1.6,1.6-2.4,3.8-2.5,6.1c0,1.1,0.2,2.2,0.7,3.2c0.4,1,1,2,1.8,2.8
	l1.3,1c0.5,0.3,1,0.6,1.5,0.8c0.5,0.3,1.1,0.4,1.6,0.5s1.1,0.2,1.6,0.2s1.1-0.1,1.6-0.2c0.6-0.1,1.1-0.2,1.6-0.5
	c0.5-0.2,1-0.4,1.5-0.8c0.5-0.3,0.9-0.7,1.4-1c0.8-0.8,1.4-1.8,1.8-2.8c0.4-1,0.7-2.1,0.7-3.2c0-2.3-0.9-4.4-2.5-6.1
	C56.8,369.1,56.4,368.7,55.9,368.4z"/>
</svg>
