<?xml version="1.0" encoding="utf-8"?>
<!-- Generator: Adobe Illustrator 22.1.0, SVG Export Plug-In . SVG Version: 6.00 Build 0)  -->
<svg version="1.1" id="Capa_1" xmlns="http://www.w3.org/2000/svg" xmlns:xlink="http://www.w3.org/1999/xlink" x="0px" y="0px"
	 viewBox="0 0 512 512" style="enable-background:new 0 0 512 512;" xml:space="preserve">
<style type="text/css">
	.st0{fill:#2861A3;}
</style>
<g>
	<g>
		<path class="st0" d="M291.7,382.8H107.2v-35.2c0-4.1-3.4-7.5-7.5-7.5s-7.5,3.4-7.5,7.5v37c0,7.3,5.9,13.2,13.2,13.2h44.8V445
			c0,0.7-0.6,1.3-1.3,1.3h-37.4v-7.4c0-9.1-7.4-16.5-16.5-16.5H65.1c-9.1,0-16.5,7.4-16.5,16.5v29.9c0,9.1,7.4,16.5,16.5,16.5H95
			c9.1,0,16.5-7.4,16.5-16.5v-7.4h37.4c9,0,16.3-7.3,16.3-16.3v-47.1h83.3v51.2h-7.4c-9.1,0-16.5,7.4-16.5,16.5v29.9
			c0,9.1,7.4,16.5,16.5,16.5h29.9c9.1,0,16.5-7.4,16.5-16.5v-29.9c0-9.1-7.4-16.5-16.5-16.5h-7.4v-51.2h28.2c4.1,0,7.5-3.4,7.5-7.5
			C299.2,386.2,295.8,382.8,291.7,382.8z M96.5,468.6c0,0.9-0.7,1.5-1.5,1.5H65.1c-0.8,0-1.5-0.7-1.5-1.5v-29.9
			c0-0.9,0.7-1.5,1.5-1.5H95c0.8,0,1.5,0.7,1.5,1.5C96.5,438.8,96.5,468.6,96.5,468.6z M270.9,464.1c0.9,0,1.5,0.7,1.5,1.5v29.9
			c0,0.9-0.7,1.5-1.5,1.5h-29.9c-0.9,0-1.5-0.7-1.5-1.5v-29.9c0-0.9,0.7-1.5,1.5-1.5H270.9z"/>
	</g>
</g>
<g>
	<g>
		<path class="st0" d="M292.6,138.6h-151c-4.1,0-7.5,3.4-7.5,7.5s3.4,7.5,7.5,7.5h151c4.1,0,7.5-3.4,7.5-7.5
			S296.8,138.6,292.6,138.6z"/>
	</g>
</g>
<g>
	<g>
		<path class="st0" d="M324.4,137.3c-4.1,0-7.5,3.4-7.5,7.5v0.8c0,4.1,3.4,7.5,7.5,7.5s7.5-3.4,7.5-7.5v-0.8
			C331.9,140.7,328.5,137.3,324.4,137.3z"/>
	</g>
</g>
<g>
	<g>
		<path class="st0" d="M347.4,137.3c-4.1,0-7.5,3.4-7.5,7.5v0.8c0,4.1,3.4,7.5,7.5,7.5s7.5-3.4,7.5-7.5v-0.8
			C354.9,140.7,351.5,137.3,347.4,137.3z"/>
	</g>
</g>
<g>
	<g>
		<path class="st0" d="M370.4,137.3c-4.1,0-7.5,3.4-7.5,7.5v0.8c0,4.1,3.4,7.5,7.5,7.5s7.5-3.4,7.5-7.5v-0.8
			C377.9,140.7,374.5,137.3,370.4,137.3z"/>
	</g>
</g>
<g>
	<g>
		<path class="st0" d="M446.9,26.8H417c-9.1,0-16.5,7.4-16.5,16.5v7.4h-37.4c-9,0-16.3,7.3-16.3,16.3v47.1h-83.3V62.9h7.4
			c9.1,0,16.5-7.4,16.5-16.5V16.5C287.5,7.4,280,0,270.9,0h-29.9c-9.1,0-16.5,7.4-16.5,16.5v29.8c0,9.1,7.4,16.5,16.5,16.5h7.4v51.2
			h-83.3V67c0-9-7.3-16.3-16.3-16.3h-37.4v-7.4c0-9.1-7.4-16.5-16.5-16.5H65.1c-9.1,0-16.5,7.4-16.5,16.5v29.9
			c0,9.1,7.4,16.5,16.5,16.5H95c9.1,0,16.5-7.4,16.5-16.5v-7.4h37.4c0.7,0,1.3,0.6,1.3,1.3v47.1h-38c-11,0-20,9-20,20V317
			c0,4.1,3.4,7.5,7.5,7.5s7.5-3.4,7.5-7.5V176.3h297.6v30.1c0,4.1,3.4,7.5,7.5,7.5s7.5-3.4,7.5-7.5v-72.2c0-11-9-20-20-20h-38V67
			c0-0.7,0.6-1.3,1.3-1.3h37.4v7.4c0,9.1,7.4,16.5,16.5,16.5h29.9c9.1,0,16.5-7.4,16.5-16.5V43.4C463.4,34.2,456,26.8,446.9,26.8z
			 M96.5,73.2c0,0.8-0.7,1.5-1.5,1.5H65.1c-0.8,0-1.5-0.7-1.5-1.5V43.4c0-0.8,0.7-1.5,1.5-1.5H95c0.8,0,1.5,0.7,1.5,1.5
			C96.5,43.4,96.5,73.2,96.5,73.2z M241.1,47.9c-0.9,0-1.5-0.7-1.5-1.5V16.5c0-0.9,0.7-1.5,1.5-1.5h29.8c0.9,0,1.5,0.7,1.5,1.5v29.9
			c0,0.8-0.7,1.5-1.5,1.5H241.1z M399.8,129.2c2.7,0,5,2.2,5,5v27.1H107.2v-27.1c0-2.7,2.2-5,5-5H399.8z M448.4,73.2
			c0,0.8-0.7,1.5-1.5,1.5H417c-0.9,0-1.5-0.7-1.5-1.5V43.4c0-0.8,0.7-1.5,1.5-1.5h29.9c0.9,0,1.5,0.7,1.5,1.5V73.2z"/>
	</g>
</g>
<g>
	<g>
		<path class="st0" d="M446.9,422.2H417c-9.1,0-16.5,7.4-16.5,16.5v7.4h-37.4c-0.7,0-1.3-0.6-1.3-1.3v-47.1h44.8
			c7.3,0,13.2-5.9,13.2-13.2V237c0-4.1-3.4-7.5-7.5-7.5s-7.5,3.4-7.5,7.5v145.8h-82.5c-4.1,0-7.5,3.4-7.5,7.5s3.4,7.5,7.5,7.5h24.5
			V445c0,9,7.3,16.3,16.3,16.3h37.4v7.4c0,9.1,7.4,16.5,16.5,16.5h29.9c9.1,0,16.5-7.4,16.5-16.5v-29.9
			C463.4,429.7,456,422.2,446.9,422.2z M448.4,468.6c0,0.9-0.7,1.5-1.5,1.5H417c-0.9,0-1.5-0.7-1.5-1.5v-29.9c0-0.9,0.7-1.5,1.5-1.5
			h29.9c0.9,0,1.5,0.7,1.5,1.5V468.6z"/>
	</g>
</g>
<g>
	<g>
		<path class="st0" d="M161.2,277l28-28c2.9-2.9,2.9-7.7,0-10.6s-7.7-2.9-10.6,0l-33.3,33.3c-2.9,2.9-2.9,7.7,0,10.6l33.3,33.3
			c1.5,1.5,3.4,2.2,5.3,2.2s3.8-0.7,5.3-2.2c2.9-2.9,2.9-7.7,0-10.6L161.2,277z"/>
	</g>
</g>
<g>
	<g>
		<path class="st0" d="M366.7,271.7l-33.3-33.3c-2.9-2.9-7.7-2.9-10.6,0c-2.9,2.9-2.9,7.7,0,10.6l28,28l-28,28
			c-2.9,2.9-2.9,7.7,0,10.6c1.5,1.5,3.4,2.2,5.3,2.2s3.8-0.7,5.3-2.2l33.3-33.3C369.6,279.4,369.6,274.6,366.7,271.7z"/>
	</g>
</g>
<g>
	<g>
		<path class="st0" d="M249,241.5c-3.7-2-8.2-0.6-10.1,3.1l-33.3,62.3c-2,3.7-0.6,8.2,3.1,10.1c1.1,0.6,2.3,0.9,3.5,0.9
			c2.7,0,5.3-1.4,6.6-4l33.3-62.3C254,248,252.7,243.4,249,241.5z"/>
	</g>
</g>
<g>
	<g>
		<path class="st0" d="M253.9,301.3c-4.1,0-7.5,3.4-7.5,7.5v0.8c0,4.1,3.4,7.5,7.5,7.5s7.5-3.4,7.5-7.5v-0.8
			C261.4,304.6,258,301.3,253.9,301.3z"/>
	</g>
</g>
<g>
	<g>
		<path class="st0" d="M278.3,301.3c-4.1,0-7.5,3.4-7.5,7.5v0.8c0,4.1,3.4,7.5,7.5,7.5s7.5-3.4,7.5-7.5v-0.8
			C285.8,304.6,282.5,301.3,278.3,301.3z"/>
	</g>
</g>
<g>
	<g>
		<path class="st0" d="M302.7,301.3c-4.1,0-7.5,3.4-7.5,7.5v0.8c0,4.1,3.4,7.5,7.5,7.5s7.5-3.4,7.5-7.5v-0.8
			C310.2,304.6,306.9,301.3,302.7,301.3z"/>
	</g>
</g>
</svg>
