<?xml version="1.0" encoding="utf-8"?>
<!-- Generator: Adobe Illustrator 22.1.0, SVG Export Plug-In . SVG Version: 6.00 Build 0)  -->
<svg version="1.1" id="圖層_1" xmlns="http://www.w3.org/2000/svg" xmlns:xlink="http://www.w3.org/1999/xlink" x="0px" y="0px"
	 viewBox="0 0 600 600" style="enable-background:new 0 0 600 600;" xml:space="preserve">
<style type="text/css">
	.st0{fill:#333333;}
</style>
<g id="surface1">
	<path class="st0" d="M70,80c-16.6,0-30,13.4-30,30s13.4,30,30,30s30-13.4,30-30S86.6,80,70,80z M70,120c-5.5,0-10-4.5-10-10
		s4.5-10,10-10s10,4.5,10,10S75.5,120,70,120z"/>
	<path class="st0" d="M220,80c-16.6,0-30,13.4-30,30s13.4,30,30,30s30-13.4,30-30S236.6,80,220,80z M220,120c-5.5,0-10-4.5-10-10
		s4.5-10,10-10s10,4.5,10,10S225.5,120,220,120z"/>
	<path class="st0" d="M380,80c-16.6,0-30,13.4-30,30s13.4,30,30,30s30-13.4,30-30S396.6,80,380,80z M380,120c-5.5,0-10-4.5-10-10
		s4.5-10,10-10s10,4.5,10,10S385.5,120,380,120z"/>
	<path class="st0" d="M530,80c-16.6,0-30,13.4-30,30s13.4,30,30,30s30-13.4,30-30S546.6,80,530,80z M530,120c-5.5,0-10-4.5-10-10
		s4.5-10,10-10s10,4.5,10,10S535.5,120,530,120z"/>
	<path class="st0" d="M540,440c16.6,0,30-13.4,30-30s-13.4-30-30-30s-30,13.4-30,30S523.4,440,540,440z M540,400c5.5,0,10,4.5,10,10
		s-4.5,10-10,10s-10-4.5-10-10S534.5,400,540,400z"/>
	<path class="st0" d="M50,470h280c5.5,0,10-4.5,10-10v-60c0-5.5-4.5-10-10-10H50c-5.5,0-10,4.5-10,10v60C40,465.5,44.5,470,50,470z
		 M60,410h260v40H60V410z"/>
	<path class="st0" d="M360,390h20v20h-20V390z"/>
	<path class="st0" d="M400,390h20v20h-20V390z"/>
	<path class="st0" d="M440,390h20v20h-20V390z"/>
	<path class="st0" d="M360,420h20v20h-20V420z"/>
	<path class="st0" d="M400,420h20v20h-20V420z"/>
	<path class="st0" d="M440,420h20v20h-20V420z"/>
	<path class="st0" d="M360,450h20v20h-20V450z"/>
	<path class="st0" d="M400,450h20v20h-20V450z"/>
	<path class="st0" d="M440,450h20v20h-20V450z"/>
	<path class="st0" d="M480,390h20v20h-20V390z"/>
	<path class="st0" d="M480,420h20v20h-20V420z"/>
	<path class="st0" d="M480,450h20v20h-20V450z"/>
	<path class="st0" d="M250,330h260c16.6,0,30-13.4,30-30V180h30c16.6,0,30-13.4,30-30V70c0-16.6-13.4-30-30-30h-80
		c-16.6,0-30,13.4-30,30v80c0,16.6,13.4,30,30,30h30v120c0,5.5-4.5,10-10,10H250c-16.6,0-30,13.4-30,30h-10v-30c0-5.5,4.5-10,10-10
		h140c16.6,0,30-13.4,30-30v-90h30c16.6,0,30-13.4,30-30V70c0-16.6-13.4-30-30-30h-80c-16.6,0-30,13.4-30,30v80
		c0,16.6,13.4,30,30,30h30v90c0,5.5-4.5,10-10,10H220c-16.6,0-30,13.4-30,30v30h-10v-60c0-5.5,4.5-10,10-10h10c16.6,0,30-13.4,30-30
		v-60h30c16.6,0,30-13.4,30-30V70c0-16.6-13.4-30-30-30h-80c-16.6,0-30,13.4-30,30v80c0,16.6,13.4,30,30,30h30v60
		c0,5.5-4.5,10-10,10h-10c-16.6,0-30,13.4-30,30v60h-10v-80c0-16.6-13.4-30-30-30H90c-5.5,0-10-4.5-10-10v-40h30
		c16.6,0,30-13.4,30-30V70c0-16.6-13.4-30-30-30H30C13.4,40,0,53.4,0,70v80c0,16.6,13.4,30,30,30h30v40c0,16.6,13.4,30,30,30h30
		c5.5,0,10,4.5,10,10v80H31.4C14.1,340,0,354.1,0,371.4v117.2C0,505.9,14.1,520,31.4,520h30.8l8.1,32.4c1.1,4.5,5.1,7.6,9.7,7.6h40
		c4.6,0,8.6-3.1,9.7-7.6l8.1-32.4h324.4l8.1,32.4c1.1,4.5,5.1,7.6,9.7,7.6h40c4.6,0,8.6-3.1,9.7-7.6l8.1-32.4h30.8
		c17.3,0,31.4-14.1,31.4-31.4V371.4c0-17.3-14.1-31.4-31.4-31.4H240C240,334.5,244.5,330,250,330z M480,150V70c0-5.5,4.5-10,10-10
		h80c5.5,0,10,4.5,10,10v80c0,5.5-4.5,10-10,10h-80C484.5,160,480,155.5,480,150z M330,150V70c0-5.5,4.5-10,10-10h80
		c5.5,0,10,4.5,10,10v80c0,5.5-4.5,10-10,10h-80C334.5,160,330,155.5,330,150z M170,150V70c0-5.5,4.5-10,10-10h80
		c5.5,0,10,4.5,10,10v80c0,5.5-4.5,10-10,10h-80C174.5,160,170,155.5,170,150z M20,150V70c0-5.5,4.5-10,10-10h80c5.5,0,10,4.5,10,10
		v80c0,5.5-4.5,10-10,10H30C24.5,160,20,155.5,20,150z M112.2,540H87.8l-5-20h34.4L112.2,540z M512.2,540h-24.4l-5-20h34.4
		L512.2,540z M568.6,360c6.3,0,11.4,5.1,11.4,11.4v117.2c0,6.3-5.1,11.4-11.4,11.4H31.4c-6.3,0-11.4-5.1-11.4-11.4V371.4
		c0-6.3,5.1-11.4,11.4-11.4H568.6z"/>
</g>
</svg>
