<?xml version="1.0" encoding="utf-8"?>
<!-- Generator: Adobe Illustrator 22.1.0, SVG Export Plug-In . SVG Version: 6.00 Build 0)  -->
<svg version="1.1" id="Layer_1" xmlns="http://www.w3.org/2000/svg" xmlns:xlink="http://www.w3.org/1999/xlink" x="0px" y="0px"
	 viewBox="0 0 512 512" style="enable-background:new 0 0 512 512;" xml:space="preserve">
<style type="text/css">
	.st0{fill:#2861A3;}
</style>
<g>
	<g>
		<path class="st0" d="M489.3,293.6c-10.3-9.8-20.8-13.9-22.8-14.6l-34.5-14.4l-24.2-16v-8.1c18.1-9.4,31.2-27,34.5-47.8
			c15.2-2,26.9-15,26.9-30.7c0-8.1-3.1-15.4-8.2-20.9v-29.7c0-47.8-38.9-86.8-86.8-86.8h-6.6c-39.4,0-73.8,26.5-83.9,64.4
			c-7.6-2.1-15.5-3.2-23.7-3.2h-6.9c-8.7,0-17,1.2-25,3.5c-10-38.1-44.4-64.8-83.9-64.8h-6.6C89.9,24.6,51,63.5,51,111.3v29.7
			c-5.1,5.5-8.2,12.9-8.2,20.9c0,15.7,11.7,28.7,26.9,30.7c3.3,20.8,16.5,38.4,34.5,47.8v8.1l-24.2,16L45.6,279
			c-2,0.7-12.5,4.8-22.8,14.6C12.4,303.4,0,321,0,349.3v49.1c0,4.5,3.6,8.1,8.1,8.1h101.5c-1.5,6.3-2.4,13.3-2.4,21v51.8
			c0,4.5,3.6,8.1,8.1,8.1h96.1h21.2H281h0h19.6h4.6c4.5,0,8.1-3.6,8.1-8.1c0-4.5-3.6-8.1-8.1-8.1h-4.6h-12.8l-9.8-60.5l3.8-10.2
			l5.8,4.2c1.4,1,3.1,1.6,4.8,1.6c0.6,0,1.3-0.1,1.9-0.2c2.3-0.6,4.3-2.2,5.3-4.3l22-45.1l29.3,12.2c0.2,0.1,0.4,0.1,0.5,0.2
			c0.4,0.1,37.1,13,37.1,58.4v43.7h-33.5v-46.1c0-4.5-3.6-8.1-8.1-8.1c-4.5,0-8.1,3.6-8.1,8.1v46.1h-8.6c-4.5,0-8.1,3.6-8.1,8.1
			c0,4.5,3.6,8.1,8.1,8.1h66.3c4.5,0,8.1-3.7,8.1-8.2v-51.7c0-7.8-0.9-14.7-2.4-21h101.5c4.5,0,8.1-3.7,8.1-8.2v-49
			C512,321,499.6,303.4,489.3,293.6z M427,182.3c0,27.3-22.2,49.6-49.6,49.6h-12.5c-1.7,0-3.5-0.1-5.2-0.3c0-0.5,0-0.9,0-1.4
			c0-8.4-3.3-16.1-8.6-21.9v-31.5c0-14.4-3.4-28-9.3-40.1c17.7-4.3,38.5-12.5,54.6-28.2c5,10.7,14.3,24.6,30.6,30.7L427,182.3
			L427,182.3z M391.6,246.5V263l-20.8,21.6L350.7,265c0-0.1,0-0.2,0-0.3v-12.2c0,0,0,0,0,0v0c1.5-1.6,2.9-3.4,4.1-5.3
			c3.3,0.5,6.7,0.8,10.1,0.8h12.5C382.3,248.1,387,247.5,391.6,246.5z M343.5,230.2c0,4.1-1.5,7.8-4,10.6c-1.5,0.6-2.8,1.7-3.7,3.1
			c-1.1,0.7-2.3,1.3-3.6,1.7v-30.7C338.8,216.9,343.5,223,343.5,230.2z M453,162c0,6.5-4.1,11.9-9.9,14v-28
			C448.9,150.1,453,155.6,453,162z M299.3,93.7c8-31.2,36.1-53,68.4-53h6.6c38.9,0,70.6,31.7,70.6,70.6v20.4c-0.7-0.1-1.3-0.3-2-0.4
			c-0.7-2.9-3-5.3-6.1-6c-22.6-5.1-29.6-34-29.7-34.3c-0.7-3.1-3.2-5.5-6.3-6.1c-3.1-0.6-6.3,0.6-8.2,3.2
			c-15.2,21-40.4,30.1-59.9,34.1c-8.8-11.7-20.4-21.2-33.8-27.6C299.1,94.3,299.2,94,299.3,93.7z M253.2,102h6.9v0
			c41.3,0,74.8,33.6,74.8,74.8v22c-0.9-0.2-1.9-0.4-2.9-0.6c0-0.1,0-0.2-0.1-0.3c0-0.1-0.1-0.3-0.1-0.4s-0.1-0.3-0.1-0.4
			c0-0.1-0.1-0.2-0.1-0.3c-0.1-0.1-0.1-0.3-0.2-0.4c0-0.1-0.1-0.2-0.1-0.3c-0.1-0.1-0.1-0.3-0.2-0.4c-0.1-0.1-0.1-0.2-0.2-0.3
			c-0.1-0.1-0.2-0.2-0.2-0.3c-0.1-0.1-0.1-0.2-0.2-0.3c-0.1-0.1-0.2-0.2-0.2-0.3c-0.1-0.1-0.2-0.2-0.3-0.3c-0.1-0.1-0.2-0.2-0.2-0.2
			c-0.1-0.1-0.2-0.2-0.3-0.3c-0.1-0.1-0.2-0.1-0.3-0.2c-0.1-0.1-0.2-0.2-0.4-0.3c-0.1-0.1-0.2-0.1-0.3-0.2c-0.1-0.1-0.2-0.2-0.4-0.2
			c-0.1-0.1-0.2-0.1-0.4-0.2c-0.1-0.1-0.2-0.1-0.3-0.2c-0.1-0.1-0.3-0.1-0.4-0.2c-0.1,0-0.2-0.1-0.3-0.1c-0.2-0.1-0.3-0.1-0.5-0.1
			c-0.1,0-0.1,0-0.2-0.1c-24.1-5.5-31.5-36.2-31.6-36.5c-0.7-3.1-3.2-5.5-6.3-6.1c-3.1-0.6-6.3,0.6-8.2,3.2
			c-28.1,38.8-89.5,39.2-90.4,39.2c0,0,0,0,0,0c-0.3,0-0.6,0-0.8,0c-0.1,0-0.1,0-0.2,0c-0.2,0-0.4,0.1-0.6,0.1c-0.1,0-0.1,0-0.2,0.1
			c-0.2,0-0.4,0.1-0.6,0.1c-0.1,0-0.2,0.1-0.3,0.1c-0.2,0.1-0.3,0.1-0.5,0.2c-0.1,0.1-0.2,0.1-0.3,0.2c-0.1,0.1-0.2,0.1-0.4,0.2
			c-0.1,0.1-0.2,0.1-0.3,0.2c-0.1,0.1-0.2,0.1-0.3,0.2c-0.1,0.1-0.2,0.2-0.3,0.2c-0.1,0.1-0.2,0.1-0.3,0.2c-0.1,0.1-0.2,0.2-0.3,0.3
			c-0.1,0.1-0.2,0.2-0.3,0.3c-0.1,0.1-0.2,0.2-0.3,0.3c-0.1,0.1-0.2,0.2-0.3,0.3c-0.1,0.1-0.2,0.2-0.2,0.3c-0.1,0.1-0.2,0.2-0.2,0.3
			c-0.1,0.1-0.1,0.2-0.2,0.3c-0.1,0.1-0.1,0.2-0.2,0.3c-0.1,0.1-0.1,0.2-0.2,0.3c-0.1,0.1-0.1,0.2-0.2,0.4c-0.1,0.1-0.1,0.2-0.1,0.4
			c0,0.1-0.1,0.3-0.1,0.4c0,0.1-0.1,0.2-0.1,0.4c0,0.1-0.1,0.3-0.1,0.4c0,0,0,0.1,0,0.1c-1.1,0.2-2.1,0.4-3.2,0.6v-22.1
			C178.4,135.6,211.9,102,253.2,102z M256.5,360l-21.7-21.1c0-0.2,0-0.3,0-0.5v-12.8c0,0,0,0,0,0v-6.9c4.9,1.1,10.1,1.8,15.4,1.8
			h13.2c5.1,0,10.1-0.6,14.9-1.7c0.1,0,0.3,0,0.4,0v18L256.5,360z M268.4,390.6l-4.2,11.2h-15.1l-4.8-11.4l11.9-8.8L268.4,390.6z
			 M147.8,324.5h-13.7l-3.8-10.1l11-8.1l10.8,8L147.8,324.5z M148.9,356.6c-4.7,2.4-11.3,6.4-17.9,12.6c-0.1,0.1-0.2,0.2-0.3,0.3
			l4.7-28.8h10.9L148.9,356.6z M141.2,284.6L120.4,263v-16.5c4.6,1,9.3,1.6,14.2,1.6h12.5c3.9,0,7.7-0.3,11.5-1
			c0.8,1.3,1.7,2.5,2.6,3.7v1.8c0,0,0,0,0,0v12.2c0,0.1,0,0.2,0,0.3L141.2,284.6z M175,274.2c1.9-1.8,2.7-4.3,2.4-6.8l7.1,4.7
			c0.8,2.5,1.7,4.9,2.7,7.2l-14.6,30l-19.2-14.1L175,274.2z M170.1,230.2c0-7.2,4.8-13.3,11.3-15.4v30.7
			C174.8,243.5,170.1,237.4,170.1,230.2z M165.5,324.1l5.4,3.9c1.4,1,3.1,1.6,4.8,1.6c0.6,0,1.3-0.1,1.9-0.2
			c2.3-0.6,4.3-2.2,5.3-4.3l14.4-29.5c5.9,7.1,13.1,12.9,21.4,17.2v8.4l-25.9,17.1c-0.4,0.1-0.7,0.2-1,0.3l-27.5,11.4l-2.7-16.5
			L165.5,324.1z M218.9,340.4c-0.7,2.7,0.1,5.7,2.2,7.7l23.1,22.5l-21,15.5l-17.9-36.7L218.9,340.4z M263.4,304.3h-13.2
			c-29,0-52.7-23.6-52.7-52.7v-44c17.3-1.3,58.4-7.1,86-34.5c5.2,11.3,15.1,26.3,32.5,32.8v45.7h0
			C316.1,280.6,292.4,304.3,263.4,304.3z M68.9,176c-5.8-2-9.9-7.5-9.9-14s4.1-11.9,9.9-14V176z M77.2,125.1
			C77.2,125.1,77.2,125.1,77.2,125.1c-0.1,0-0.1,0-0.1,0s-0.1,0-0.1,0c-3.8,0-7,2.7-7.9,6.2c-0.7,0.1-1.3,0.2-2,0.4v-20.4
			c0-38.9,31.7-70.6,70.6-70.6h6.6c32.3,0,60.4,21.8,68.4,53c0.1,0.5,0.3,0.9,0.5,1.4c-10.6,5.2-20.1,12.5-27.9,21.3
			c-9.3-9.7-12.6-23.3-12.6-23.4c-0.7-3.1-3.2-5.5-6.3-6.1c-3.1-0.6-6.3,0.6-8.2,3.2C133.1,124.8,78,125.1,77.2,125.1
			C77.2,125.1,77.2,125.1,77.2,125.1z M85,182.3V141c15.9-1.2,52-6.6,76.9-30.6c2.9,6.1,7.3,13.2,13.6,19.1
			c-8.4,13.8-13.3,30-13.3,47.3v31.8c-5.1,5.7-8.3,13.3-8.3,21.5c0,0.4,0,0.8,0,1.2c-2.3,0.3-4.5,0.5-6.8,0.5h-12.5
			C107.3,231.9,85,209.7,85,182.3z M104.4,268c0.3,1.4,1,2.8,2.1,3.9l22.5,23.4l-19.1,14l-16.6-34.1L104.4,268z M111,390.4H63.3
			v-43.3c0-4.5-3.6-8.1-8.1-8.1s-8.1,3.6-8.1,8.1v43.3h-31v-41.1c0-42.5,33.5-54.6,34.9-55.1c0.2-0.1,0.4-0.1,0.5-0.2L79,282.6
			l20.7,42.5c1.1,2.2,3,3.7,5.3,4.3c0.6,0.2,1.3,0.2,1.9,0.2c1.7,0,3.4-0.5,4.8-1.6l5-3.7l3.4,9L111,390.4z M225.7,471.3h-14.4
			h-38.3v0v-46.1c0-4.5-3.6-8.1-8.1-8.1c-4.5,0-8.1,3.6-8.1,8.1v46.1h-33.5v-43.7c0-45.1,35.6-57.9,37.1-58.4
			c0.2-0.1,0.4-0.1,0.5-0.2l29.8-12.4l22.1,45.4c1.1,2.2,3,3.7,5.3,4.3c0.6,0.2,1.3,0.2,1.9,0.2c1.7,0,3.4-0.5,4.8-1.6l6.1-4.5
			l4.4,10.6L225.7,471.3z M242.1,471.3l8.6-53.3h12.3l8.6,53.3H242.1z M289.5,386.1l-6.4-4.7c0,0,0,0-0.1,0l-14.5-10.7l24.1-25
			c1.2-1.3,2-2.9,2.2-4.6l12.5,8.2L289.5,386.1z M347.8,350.1l-27.1-11.3L295,321.8c0,0,0,0,0,0v-9.1c7.7-4,14.6-9.5,20.3-16
			l13.8,28.3c1,2.2,3,3.7,5.3,4.3c0.6,0.2,1.3,0.2,1.9,0.2c1.7,0,3.4-0.5,4.8-1.6l5.4-3.9l4,9.4L347.8,350.1z M339.3,309.3
			L325.6,281c1.6-3.3,2.9-6.7,3.9-10.2l5.1-3.4c-0.3,2.4,0.5,4.9,2.4,6.8l21.5,21L339.3,309.3z M381,369.2
			c-6.6-6.2-13.2-10.2-17.9-12.6l2.6-16h10.9l4.7,28.8C381.2,369.4,381.1,369.3,381,369.2z M377.9,324.5h-13.7l-4.3-10.2l10.8-8
			l11,8.1L377.9,324.5z M383,295.3l22.5-23.4c1.1-1.1,1.8-2.5,2.1-3.9l11,7.3L402,309.3L383,295.3z M464.8,390.4v-43.3
			c0-4.5-3.6-8.1-8.1-8.1c-4.5,0-8.1,3.6-8.1,8.1v43.3H401l-9.2-57l3.4-9l5,3.7c1.4,1,3.1,1.6,4.8,1.6c0.6,0,1.3-0.1,1.9-0.2
			c2.3-0.6,4.3-2.2,5.3-4.3l20.7-42.5l27.4,11.4c0.2,0.1,0.4,0.1,0.5,0.2c0.3,0.1,34.9,12.2,34.9,55.1v41.1L464.8,390.4L464.8,390.4
			z"/>
	</g>
</g>
</svg>
