<?xml version="1.0" encoding="utf-8"?>
<!-- Generator: Adobe Illustrator 22.1.0, SVG Export Plug-In . SVG Version: 6.00 Build 0)  -->
<svg version="1.1" id="圖層_1" xmlns="http://www.w3.org/2000/svg" xmlns:xlink="http://www.w3.org/1999/xlink" x="0px" y="0px"
	 viewBox="0 0 512 512" style="enable-background:new 0 0 512 512;" xml:space="preserve">
<style type="text/css">
	.st0{fill:#333333;}
</style>
<title>job-07</title>
<desc>Created with Sketch.</desc>
<g id="Page-1">
	<g id="job-07">
		<path id="Shape" class="st0" d="M502,410c5.5,0,10-4.5,10-10V50c0-27.6-22.4-50-50-50H50C22.4,0,0,22.4,0,50v372
			c0,27.6,22.4,50,50,50h360.5l27.3,27.3c8.5,8.5,19.6,12.7,30.8,12.7c11.1,0,22.3-4.2,30.8-12.7c17-17,17-44.6,0-61.5l-98.6-98.6
			c-1.9-1.9-4.4-2.9-7.1-2.9c-2.7,0-5.2,1.1-7.1,2.9l-16.6,16.6l-10.3-10.3c21.4-24.7,34.4-56.9,34.4-92c0-30.6-9.6-59.6-27.9-84.1
			c-17.6-23.6-42.8-41.4-70.8-50.2c-5.3-1.6-10.9,1.3-12.5,6.6c-1.6,5.3,1.3,10.9,6.6,12.5C340,154.1,374,200.4,374,253.4
			c0,66.5-54.1,120.6-120.6,120.6s-120.6-54.1-120.6-120.6c0-52.6,33.6-98.8,83.7-114.8c5.3-1.7,8.2-7.3,6.5-12.6
			c-1.7-5.3-7.3-8.1-12.6-6.5c-28.1,9-52.3,26.4-70,50.3c-18,24.3-27.6,53.2-27.6,83.6c0,77.5,63.1,140.6,140.6,140.6
			c35.2,0,67.4-13,92-34.4l10.3,10.3l-16.6,16.6c-3.9,3.9-3.9,10.2,0,14.1l51.4,51.4H50c-16.5,0-30-13.5-30-30V92
			c0.3,0,0.7,0.1,1,0.1h471v308C492,405.5,496.5,410,502,410z M388.2,421.4l16.6-16.6c3.9-3.9,3.9-10.2,0-14.1
			c-3.9-3.9-10.2-3.9-14.1,0l-16.6,16.6l-13.7-13.7l16.6-16.6c0,0,0,0,0,0c0,0,0,0,0,0l16.6-16.6l91.6,91.6c9.2,9.2,9.2,24.1,0,33.2
			c-9.2,9.2-24.1,9.2-33.2,0L388.2,421.4z M21,72c-0.3,0-0.7,0-1,0.1V50c0-16.5,13.5-30,30-30h412c16.5,0,30,13.5,30,30v22H21z"/>
		<path id="Shape_1_" class="st0" d="M448,36H222.1c-5.5,0-10,4.5-10,10s4.5,10,10,10H448c5.5,0,10-4.5,10-10S453.5,36,448,36z"/>
		<path id="Shape_2_" class="st0" d="M111.1,38.9c-1.9-1.9-4.4-2.9-7.1-2.9s-5.2,1.1-7.1,2.9S94,43.4,94,46s1.1,5.2,2.9,7.1
			s4.4,2.9,7.1,2.9s5.2-1.1,7.1-2.9s2.9-4.4,2.9-7.1S112.9,40.8,111.1,38.9z"/>
		<path id="Shape_3_" class="st0" d="M71.1,38.9C69.2,37.1,66.6,36,64,36c-2.6,0-5.2,1.1-7.1,2.9S54,43.4,54,46s1.1,5.2,2.9,7.1
			S61.4,56,64,56c2.6,0,5.2-1.1,7.1-2.9S74,48.6,74,46S72.9,40.8,71.1,38.9z"/>
		<path id="Shape_4_" class="st0" d="M151.1,38.9c-1.9-1.9-4.4-2.9-7.1-2.9s-5.2,1.1-7.1,2.9c-1.9,1.9-2.9,4.4-2.9,7.1
			s1.1,5.2,2.9,7.1c1.9,1.9,4.4,2.9,7.1,2.9s5.2-1.1,7.1-2.9c1.9-1.9,2.9-4.4,2.9-7.1S152.9,40.8,151.1,38.9z"/>
		<path id="Shape_5_" class="st0" d="M253.8,112.8h-0.4c-5.5,0-10,4.5-10,10c0,5.5,4.5,10,10,10h0.3c0,0,0,0,0,0c5.5,0,10-4.4,10-10
			C263.8,117.4,259.3,112.9,253.8,112.8z"/>
		<path id="Shape_6_" class="st0" d="M132.3,394H64c-5.5,0-10,4.5-10,10c0,5.5,4.5,10,10,10h68.3c5.5,0,10-4.5,10-10
			C142.3,398.5,137.9,394,132.3,394z"/>
		<path id="Shape_7_" class="st0" d="M108.1,354H64c-5.5,0-10,4.5-10,10c0,5.5,4.5,10,10,10h44.1c5.5,0,10-4.5,10-10
			C118.1,358.5,113.6,354,108.1,354z"/>
		<path id="Shape_8_" class="st0" d="M177.4,396.9c-1.9-1.9-4.4-2.9-7.1-2.9c-2.6,0-5.2,1.1-7.1,2.9c-1.9,1.9-2.9,4.4-2.9,7.1
			c0,2.6,1.1,5.2,2.9,7.1c1.9,1.9,4.4,2.9,7.1,2.9c2.6,0,5.2-1.1,7.1-2.9c1.9-1.9,2.9-4.4,2.9-7.1
			C180.3,401.4,179.3,398.8,177.4,396.9z"/>
		<path id="Shape_9_" class="st0" d="M448,118h-78.1c-5.5,0-10,4.5-10,10c0,5.5,4.5,10,10,10H448c5.5,0,10-4.5,10-10
			C458,122.5,453.5,118,448,118z"/>
		<path id="Shape_10_" class="st0" d="M448,158h-38.8c-5.5,0-10,4.5-10,10c0,5.5,4.5,10,10,10H448c5.5,0,10-4.5,10-10
			C458,162.5,453.5,158,448,158z"/>
		<path id="Shape_11_" class="st0" d="M329.4,278c5.5,0,10-4.5,10-10c0-5.5-4.5-10-10-10h-15.2c-0.2-2.8-0.5-5.6-1-8.3l15.3-15.4
			c3.9-3.9,3.9-10.2,0-14.1c-3.9-3.9-10.2-3.9-14.1,0l-9.2,9.3c-5.6-8.8-13.4-16.1-22.6-20.9v-7c0-15.1-12.3-27.4-27.4-27.4h-2.9
			c-15.1,0-27.4,12.3-27.4,27.4v7c-9.3,4.9-17.2,12.2-22.8,21.1l-9.4-9.5c-3.9-3.9-10.2-3.9-14.1,0c-3.9,3.9-3.9,10.2,0,14.1
			l15.6,15.7c-0.5,2.6-0.8,5.2-1,7.9h-15.5c-5.5,0-10,4.5-10,10c0,5.5,4.5,10,10,10h15.5c0.1,2.7,0.5,5.4,1,8l-15.6,15.7
			c-3.9,3.9-3.9,10.2,0,14.1c2,1.9,4.5,2.9,7,2.9c2.6,0,5.1-1,7.1-3l9.4-9.4c10.5,16.8,29.2,28,50.5,28h2.4
			c21.2,0,39.8-11.1,50.3-27.8l9.2,9.2c2,2,4.5,3,7.1,3c2.5,0,5.1-1,7-2.9c3.9-3.9,3.9-10.2,0-14.1l-15.3-15.4
			c0.5-2.7,0.9-5.4,1-8.2H329.4z M244.7,201.5c0-4.1,3.3-7.4,7.4-7.4h2.9c4.1,0,7.4,3.3,7.4,7.4v0.2h-7.7h-2.4h-7.7V201.5z
			 M294.3,274.8c0,21.8-17.7,39.5-39.5,39.5h-2.4c-21.8,0-39.5-17.7-39.5-39.5v-13.6c0-21.8,17.7-39.5,39.5-39.5h2.4
			c21.8,0,39.5,17.7,39.5,39.5V274.8z"/>
	</g>
</g>
</svg>
