<?xml version="1.0" encoding="utf-8"?>
<!-- Generator: Adobe Illustrator 22.1.0, SVG Export Plug-In . SVG Version: 6.00 Build 0)  -->
<svg version="1.1" id="圖層_1" xmlns="http://www.w3.org/2000/svg" xmlns:xlink="http://www.w3.org/1999/xlink" x="0px" y="0px"
	 viewBox="0 0 201 212.8" style="enable-background:new 0 0 201 212.8;" xml:space="preserve">
<style type="text/css">
	.st0{fill:#FCC80E;}
	.st1{fill:#2861A3;}
	.st2{fill:#5F90CC;}
	.st3{fill:#80C8EF;}
	.st4{fill:#192350;}
</style>
<title>funpodium_logo</title>
<g>
	<polygon class="st0" points="81.5,89 64.3,79 64.3,98.9 	"/>
	<polygon class="st1" points="73.9,15.4 100.5,0 177.6,44.5 151.6,60.2 	"/>
	<polygon class="st1" points="23.5,44.5 52.9,27.5 129.4,71.7 100.5,89 	"/>
	<polygon class="st2" points="127.1,162.6 100.5,177.9 23.5,133.4 49.4,117.7 	"/>
	<polygon class="st3" points="177.6,133.4 148.2,150.4 71.6,106.2 100.5,89 	"/>
	<polygon class="st2" points="177.6,133.4 177.6,44.5 148.6,27.8 148.6,116.7 	"/>
	<polygon class="st3" points="23.5,44.5 23.5,133.4 52.4,150.1 52.4,61.2 	"/>
</g>
<g>
	<path class="st4" d="M11.4,191.9h-8v5.5h7.7v3.2H3.5v10.9H0v-22.8h11.4V191.9z"/>
	<path class="st4" d="M20.9,188.6v13.7c-0.1,1.5,0.2,3,1,4.3c0.9,1.3,2.4,2,4,2c1.6,0,3.1-0.7,4-2c0.8-1.3,1.1-2.8,1-4.3v-13.7h3.4
		v14.7c0.2,4.6-3.4,8.4-8,8.5c-0.2,0-0.3,0-0.5,0c-4.6,0.1-8.3-3.6-8.4-8.1c0-0.1,0-0.3,0-0.4v-14.7H20.9z"/>
	<path class="st4" d="M42,211.4v-24.4l16.6,17.4v-15.9H62v24.2l-16.6-17.3v16L42,211.4z"/>
	<path class="st4" d="M73.1,202.2v9.3h-3.4v-22.8h3.9c1.5,0,2.9,0.1,4.3,0.4c1,0.3,1.9,0.8,2.6,1.5c1.3,1.3,2,3,2,4.8
		c0.1,1.9-0.7,3.7-2.1,5c-1.6,1.3-3.6,2-5.7,1.8L73.1,202.2z M73.1,199h1.3c3.2,0,4.7-1.2,4.7-3.6c0-2.4-1.6-3.5-4.9-3.5h-1.1V199z"
		/>
	<path class="st4" d="M86.9,199.9c0-3.1,1.2-6.1,3.5-8.3c2.2-2.3,5.3-3.5,8.4-3.5c6.5,0,11.8,5.3,11.9,11.9c0,3.2-1.2,6.2-3.5,8.4
		c-4.5,4.5-11.7,4.6-16.5,0.4C88.2,206.6,86.8,203.3,86.9,199.9z M90.4,199.9c-0.1,2.3,0.8,4.6,2.5,6.2c1.5,1.6,3.6,2.4,5.8,2.4
		c2.3,0,4.5-0.9,6.1-2.5c3.3-3.4,3.3-8.8,0-12.2c-3.3-3.3-8.7-3.3-12,0C91.2,195.5,90.3,197.7,90.4,199.9L90.4,199.9z"/>
	<path class="st4" d="M117.2,211.4v-22.8h4.8c1.8-0.1,3.7,0.2,5.4,0.7c1.4,0.5,2.8,1.2,3.9,2.3c4.7,4.6,4.7,12,0.2,16.7
		c-0.1,0.1-0.2,0.2-0.3,0.3c-1.1,1-2.4,1.8-3.9,2.3c-1.7,0.5-3.6,0.7-5.4,0.6L117.2,211.4z M120.7,208.2h1.6c1.3,0,2.6-0.1,3.9-0.5
		c1-0.3,2-0.9,2.8-1.6c1.7-1.5,2.6-3.7,2.5-6c0.1-2.3-0.8-4.5-2.5-6.1c-1.5-1.4-3.7-2.1-6.7-2.1h-1.6V208.2z"/>
	<path class="st4" d="M144.7,188.6v22.8h-3.4v-22.8H144.7z"/>
	<path class="st4" d="M155.8,188.6v13.7c-0.1,1.5,0.2,3,1,4.3c1.7,2.2,5,2.6,7.2,0.9c0.3-0.3,0.6-0.5,0.9-0.9c0.8-1.3,1.1-2.8,1-4.3
		v-13.7h3.4v14.7c0.1,2.2-0.7,4.3-2.2,5.9c-3.4,3.4-8.9,3.5-12.3,0.1c0,0-0.1-0.1-0.1-0.1c-1.5-1.6-2.3-3.7-2.2-5.9v-14.7H155.8z"/>
	<path class="st4" d="M176,211.4l4.8-24.5l7.8,17.7l8.1-17.7l4.3,24.5h-3.5l-2.2-13.8l-6.8,14.8l-6.6-14.8l-2.4,13.8H176z"/>
</g>
</svg>
