<svg id="Layer_1" data-name="Layer 1" xmlns="http://www.w3.org/2000/svg" viewBox="0 0 150 150">
  <defs>
    <style>
      .cls-1 {
        fill: none;
        stroke: #5f90cc;
        stroke-linecap: round;
        stroke-linejoin: round;
        stroke-width: 3px;
      }
    </style>
  </defs>
  <title>serve-01</title>
  <g>
    <path class="cls-1" d="M38.8,44.78h6.31a1.21,1.21,0,0,0,1.21-1.21V42.28a6.81,6.81,0,0,0-6.81-6.8H28.18a6.81,6.81,0,0,0-6.8,6.8v1.29a1.21,1.21,0,0,0,1.21,1.21h6.26"/>
    <path class="cls-1" d="M118.58,44.78h8.82a1.22,1.22,0,0,0,1.22-1.21V42.28a6.81,6.81,0,0,0-6.81-6.8H110.48a6.8,6.8,0,0,0-6.8,6.8v1.29a1.21,1.21,0,0,0,1.21,1.21h9.23"/>
    <path class="cls-1" d="M103.42,42.62c-.3.25-.6.5-.9.77s-.71.66-1,1h-53a21.25,21.25,0,0,0-2-1.81"/>
    <path class="cls-1" d="M106.49,87c.61,1.18,1.25,2.35,1.89,3.52s1.38,2.47,2.09,3.68,1.4,2.35,2.12,3.49c6.28,10.07,13.11,18,18,16.7,10.91-2.83,8.14-50,5.31-60.93a20.33,20.33,0,0,0-4.71-8.68,17.38,17.38,0,0,0-2.35-2.19"/>
    <line class="cls-1" x1="69.16" y1="84.46" x2="81.05" y2="84.46"/>
    <path class="cls-1" d="M21.19,42.57a18.25,18.25,0,0,0-3,2.94A19.87,19.87,0,0,0,15.34,50a20.13,20.13,0,0,0-1.24,3.47c-2.83,10.91-5.6,58.1,5.31,60.93,4.47,1.15,10.56-5.34,16.37-14.15,1.48-2.24,2.94-4.63,4.35-7.08.49-.85,1-1.71,1.45-2.57l.71-1.3c.41-.76.82-1.51,1.21-2.26"/>
    <circle class="cls-1" cx="55.61" cy="79.67" r="13.8" transform="translate(-26.26 27.35) rotate(-22.5)"/>
    <circle class="cls-1" cx="94.39" cy="79.67" r="13.8" transform="translate(-23.12 41.62) rotate(-22.22)"/>
    <g>
      <g>
        <path class="cls-1" d="M121,49.22a4.83,4.83,0,1,1-4.82-4.82A4.82,4.82,0,0,1,121,49.22Z"/>
        <path class="cls-1" d="M121,67.92a4.83,4.83,0,1,1-4.82-4.82A4.82,4.82,0,0,1,121,67.92Z"/>
        <path class="cls-1" d="M106.8,53.75A4.83,4.83,0,1,1,102,58.57,4.82,4.82,0,0,1,106.8,53.75Z"/>
        <path class="cls-1" d="M125.5,53.75a4.83,4.83,0,1,1-4.83,4.82A4.82,4.82,0,0,1,125.5,53.75Z"/>
      </g>
      <path class="cls-1" d="M46.68,53.75h-8v-8a1.34,1.34,0,0,0-1.34-1.34h-7A1.35,1.35,0,0,0,29,45.74v8H21a1.35,1.35,0,0,0-1.35,1.35v6.95A1.36,1.36,0,0,0,21,63.4h8v8a1.36,1.36,0,0,0,1.35,1.35h7a1.35,1.35,0,0,0,1.34-1.35v-8h8A1.35,1.35,0,0,0,48,62.05V55.1A1.34,1.34,0,0,0,46.68,53.75Z"/>
    </g>
    <g>
      <circle class="cls-1" cx="55.61" cy="79.67" r="7.89"/>
      <circle class="cls-1" cx="94.39" cy="79.67" r="7.89"/>
    </g>
    <path class="cls-1" d="M78,75.73a3,3,0,1,1-3-3A2.95,2.95,0,0,1,78,75.73Z"/>
    <path class="cls-1" d="M57.24,44.4V60.22a2.31,2.31,0,0,0,2.31,2.31H90.44a2.3,2.3,0,0,0,2.31-2.31V44.4Z"/>
  </g>
</svg>
