<svg id="Layer_1" data-name="Layer 1" xmlns="http://www.w3.org/2000/svg" viewBox="0 0 150 150">
  <defs>
    <style>
      .cls-1 {
        fill: none;
        stroke: #5f90cc;
        stroke-linecap: round;
        stroke-linejoin: round;
        stroke-width: 3px;
      }
    </style>
  </defs>
  <title>serve-03</title>
  <g>
    <path class="cls-1" d="M103.44,117.4h7.86a3.63,3.63,0,0,0,0-7.26H37.89l-1.81-7.24h68a4,4,0,0,0,1.28-.23,4.28,4.28,0,0,0,.42-.26,3.07,3.07,0,0,0,.66-.38c.14-.12.23-.3.37-.44a4.82,4.82,0,0,0,.44-.55,4.13,4.13,0,0,0,.22-.62c.06-.19.16-.37.21-.57l0-.08v0l10.48-66.42,12.18-3.05a3.63,3.63,0,0,0-1.75-7l-14.52,3.64a3.63,3.63,0,0,0-2.71,2.95L109.5,41.44,20.11,52.15l-.2.07c-.08,0-.16,0-.25,0a4,4,0,0,0-.55.25,3.1,3.1,0,0,0-.58.28,3.82,3.82,0,0,0-.65.62c-.11.12-.25.17-.34.3a.45.45,0,0,0,0,.11,3.45,3.45,0,0,0-.41,1,2.48,2.48,0,0,0-.13.35A3.93,3.93,0,0,0,17,56.63l10.9,43.53,3.63,14.5a1.39,1.39,0,0,0,.12.28c.06.18.14.34.21.5a4.1,4.1,0,0,0,.44.65,3.17,3.17,0,0,0,.36.37,3.28,3.28,0,0,0,.69.48,3.84,3.84,0,0,0,.39.22,4,4,0,0,0,1.29.24H46m9.7,0H93.3M29.21,75.46l9.57-.66.94,6.56h-9ZM46,74.3l9.63-.67L56,81.36h-9Zm16.88-1.17,9.61-.66-.39,8.89H63.3ZM79.81,72l9.55-.66L88.1,81.36H79.41Zm16.93-1.17,7.5-.52-1.48,11.09H95.42ZM107.07,49,105,64.91l-7.54.52L99.35,50ZM91.91,50.86,90,65.94l-10,.69.63-14.43ZM73.37,53.07l-.61,14.07-10.09.69-.61-13.39ZM54.83,55.3l.6,13L45.29,69,43.52,56.65ZM36.31,57.52l1.72,12-10.13.7L25.05,58.86ZM34.26,95.64l-2.25-9h8.47l1.28,9Zm14.84,0-1.29-9h8.46l.41,9Zm14.85,0-.41-9h8.37l-.4,9Zm14.84,0,.39-9h8.26l-1.12,9Zm14.84,0,1.13-9h7.29l-1.19,9Z"/>
    <path class="cls-1" d="M45.43,121a5.85,5.85,0,1,0,5.84-5.84A5.85,5.85,0,0,0,45.43,121Z"/>
    <circle class="cls-1" cx="98.42" cy="121.04" r="5.85"/>
  </g>
</svg>
