<svg id="Layer_1" data-name="Layer 1" xmlns="http://www.w3.org/2000/svg" viewBox="0 0 150 150">
  <defs>
    <style>
      .cls-1 {
        fill: #5f90cc;
      }
    </style>
  </defs>
  <title>serve-04</title>
  <g>
    <g id="WhatsApp">
      <path class="cls-1" d="M76,20.58c29.44,0,53.38,23.75,53.38,52.94S105.48,126.46,76,126.46a53.77,53.77,0,0,1-25.8-6.59,3.09,3.09,0,0,0-1.45-.37,3.19,3.19,0,0,0-.91.14l-25.55,8.12,8.27-24.39a3,3,0,0,0-.28-2.52,52.48,52.48,0,0,1-7.65-27.33c0-29.19,23.94-52.94,53.37-52.94m0-3c-31.13,0-56.37,25.05-56.37,55.94a55.31,55.31,0,0,0,8.09,28.89l-10.18,30,31.21-9.92a56.41,56.41,0,0,0,27.25,7c31.14,0,56.38-25,56.38-55.94S107.18,17.58,76,17.58Z"/>
    </g>
    <g>
      <path class="cls-1" d="M60,69a.62.62,0,0,1,.6.6V97.68a.62.62,0,0,1-.6.6H50.17a.62.62,0,0,1-.6-.6V69.56a.62.62,0,0,1,.6-.6H60m0-3H50.17a3.61,3.61,0,0,0-3.6,3.6V97.68a3.61,3.61,0,0,0,3.6,3.6H60a3.61,3.61,0,0,0,3.6-3.6V69.56A3.61,3.61,0,0,0,60,66Z"/>
      <path class="cls-1" d="M85.63,45.57c1.61.36,2.94,1.57,2.94,5.48,0,5.69-3.89,13.49-3.93,13.56A3,3,0,0,0,87.32,69h17.2a1.92,1.92,0,0,1,1.91,1.91A1.89,1.89,0,0,1,105,72.72a3,3,0,0,0-1.2,5.26,1.9,1.9,0,0,1-.76,3.34,3,3,0,0,0-1.2,5.27,1.87,1.87,0,0,1,.72,1.48A1.89,1.89,0,0,1,101,89.92a3,3,0,0,0-1.21,5.27,1.88,1.88,0,0,1,.72,1.48,1.9,1.9,0,0,1-1.87,1.91l-27.84-.3a.61.61,0,0,1-.59-.6v-28c.37-1.37,4.43-4.88,6.62-6.77C81,59.28,84.62,56.19,85.16,53a30.85,30.85,0,0,0,.28-4c0-.94.08-2.41.19-3.48M84,42.42c-2,0-1.31,7.25-1.79,10.08-.76,4.43-15,12.57-15,17.06V97.68a3.61,3.61,0,0,0,3.59,3.6l27.81.3a4.9,4.9,0,0,0,3.06-8.73,4.91,4.91,0,0,0,2-8.61,4.9,4.9,0,0,0,2-8.6A4.9,4.9,0,0,0,104.52,66H87.32s4.25-8.42,4.25-14.91c0-7.36-4.25-8.63-7.57-8.63Z"/>
    </g>
    <path class="cls-1" d="M54.86,91.23a1.93,1.93,0,1,1-1.93,1.93,1.94,1.94,0,0,1,1.93-1.93m0-2a3.93,3.93,0,1,0,3.93,3.93,3.93,3.93,0,0,0-3.93-3.93Z"/>
  </g>
</svg>
